<?xml version="1.0" standalone="yes"?>
<svg width="4000" height="4500">
<path style="stroke:none;fill:none;" d="M1824 577C1815.29 645.83 1803.06 714.437 1792.42 783C1772.22 913.301 1752.63 1043.7 1732.42 1174C1724.82 1223.06 1724.49 1274.47 1721.09 1324C1719.75 1343.6 1721.68 1366.97 1716.68 1385.96C1712.1 1403.4 1685 1386.29 1682.29 1406C1673.16 1472.41 1675.91 1540.44 1667.71 1607C1653.9 1719.11 1628.7 1829.84 1615.29 1942C1609.8 1987.89 1608.25 2034.88 1605.09 2081C1603.77 2100.28 1605.6 2123.28 1600.68 2141.96C1596 2159.75 1568.97 2142.51 1563.15 2158.09C1560.22 2165.94 1561.48 2176.7 1560.91 2185L1556.91 2242C1553.03 2298.6 1549.29 2354.84 1540.58 2411C1518.98 2550.27 1497.27 2689.57 1476.73 2829C1467.22 2893.57 1452.14 2958.96 1447 3024M2585 578C2577.59 608.771 2575.34 641.677 2570.73 673C2562.13 731.344 2553.32 789.656 2544.73 848C2533.48 924.346 2521.97 1000.65 2510.73 1077C2505.2 1114.54 2497.77 1152.22 2494.17 1190C2490.03 1233.5 2488.07 1277.4 2485.09 1321C2483.65 1342.07 2484.19 1364.13 2480.85 1384.99C2477.96 1403.06 2450.38 1386.89 2446.77 1404.01C2443.09 1421.55 2444.14 1441.13 2442.91 1459C2439.6 1507.26 2437.43 1555.85 2432.83 1604C2429.92 1634.41 2423.72 1664.78 2419.27 1695C2407.4 1775.62 2393.35 1856.14 2383.28 1937C2376.92 1988.17 2375.61 2040.56 2372.09 2092C2370.98 2108.13 2371.41 2125.02 2368.85 2140.99C2365.76 2160.32 2335.48 2141.91 2330.98 2159.04C2326.2 2177.22 2328.19 2199.25 2326.91 2218C2323.59 2266.47 2322.56 2315.76 2316.71 2364C2301.65 2488.26 2281.12 2612.11 2263.27 2736C2249.52 2831.41 2239.65 2928.24 2222 3023M1717 1389C1727.47 1399.13 1747.21 1395 1761 1395L1875 1395L2300 1395L2406 1395C2419.23 1395 2436.93 1391.26 2447 1401M2481 1389C2489.6 1397.32 2500.75 1395 2512 1395L2583 1395L2874 1395M1237 1395L1567 1395L1649 1395C1660.87 1395 1673.93 1392.22 1683 1401M1601 2145C1611.47 2155.13 1631.21 2151 1645 2151L1759 2151L2184 2151L2290 2151C2303.23 2151 2320.93 2147.26 2331 2157M2369 2145C2377.76 2153.48 2389.54 2151 2401 2151L2474 2151L2774 2151M1129 2151L1450 2151L1530 2151C1541.67 2151 1554.08 2148.37 1563 2157"/>
</svg>
