<?xml version="1.0" standalone="yes"?>
<svg width="4000" height="4500">
<path style="stroke:none;fill:none;" d="M1988 285C1988 591.924 1986 898.822 1986 1206L1986 1464L1986 1536C1986 1544.29 1988.72 1558.5 1984.97 1566C1981.38 1573.18 1972.63 1579.37 1967 1585L1927 1625C1921.74 1630.26 1913.56 1642.33 1906 1643.78C1901.67 1644.61 1896.21 1642.12 1892 1641.21C1881.31 1638.9 1870.63 1636.45 1860 1633.87C1839.04 1628.78 1814.98 1626.45 1795 1618.39C1774.85 1610.26 1754.74 1592.12 1737 1579.58C1669.88 1532.09 1605.19 1483.16 1545 1427.09C1464.78 1352.36 1395.1 1267.36 1373.8 1157C1369.35 1133.89 1364.01 1108.61 1364.01 1085C1364.01 1045.04 1374.65 1002.13 1382.2 963C1400.42 868.532 1425.52 780.478 1491.39 707.17C1554.18 637.286 1635.45 593.945 1723 563.656C1781.39 543.456 1841.88 532.648 1903 526.83C1918.87 525.32 1935.05 524.186 1951 523.996C1956.37 523.932 1962.79 521.682 1968 523.604C1974.53 526.01 1980.17 534.171 1985 539M1989 523C2077.73 523 2165.88 534.996 2252 556.525C2331.7 576.45 2409.65 603.993 2480 647.089C2517.21 669.884 2552.04 696.353 2583.29 726.87C2594.34 737.664 2609.55 749.292 2617.08 763C2621.59 771.224 2622.42 782.904 2624.42 792C2629.12 813.253 2633.56 834.579 2637.42 856C2646.53 906.485 2654.44 957.083 2660.72 1008C2664.22 1036.42 2664.78 1065.89 2670 1094M1909 1646C1912.47 1658.05 1920.1 1678.37 1928.42 1687.79C1936.04 1696.42 1951.05 1702.06 1961 1707.72C1988 1723.08 2020.43 1736.74 2044.79 1755.95C2053.54 1762.86 2058.11 1781 2062.69 1791C2064.49 1794.93 2065.98 1801.95 2070.27 1803.86C2078.53 1807.52 2089.19 1808.47 2098 1810.42C2116.7 1814.58 2135.33 1819.06 2154 1823.35C2163.11 1825.44 2173.71 1826.43 2182 1830.9C2230.8 1857.22 2278.36 1890.52 2324 1921.97C2446.34 2006.3 2570.97 2100.06 2627.07 2243C2641.13 2278.8 2649.43 2317.97 2654.29 2356C2658.25 2387.07 2663.96 2418.66 2660.83 2450C2645.49 2603.42 2617.65 2766.67 2503.87 2879.63C2425.46 2957.47 2325.89 3002.49 2221 3032.43C2147.32 3053.46 2073.51 3065.61 1997 3068.96C1959.03 3070.62 1919.94 3067.7 1882 3066.04C1764.09 3060.88 1647.77 3047.44 1537 3003.93C1465.85 2975.97 1402.48 2936.84 1342 2890.34C1318.4 2872.19 1289.21 2851.08 1271.43 2827C1265.72 2819.27 1265.29 2806.18 1263.12 2797C1257.23 2772.15 1252.4 2747.04 1247.4 2722C1234.53 2657.57 1224.68 2592.22 1216.84 2527C1213.05 2495.37 1206.66 2462.86 1206 2431M2068 1804L2012 1860C2005.14 1866.86 1992 1875.79 1988.6 1885C1985.1 1894.51 1988 1909.88 1988 1920L1988 1999L1988 2268L1988 3404"/>
</svg>
