<?xml version="1.0" standalone="yes"?>
<svg width="4000" height="4500">
<path style="stroke:none;fill:none;" d="M2391 481L2317 626C2311.7 620.699 2304.35 609.813 2297 607.697C2293.25 606.616 2288.51 609.187 2285 610.33C2276.06 613.243 2267.04 615.999 2258 618.579C2237.68 624.379 2214.29 628.029 2195 636.529C2178.98 643.587 2164.43 656.699 2149 665.309C2108.61 687.841 2066.69 706.856 2022 719.255C1920.15 747.513 1808.21 747.082 1704 734.285C1658.45 728.691 1613.71 720.176 1568 715.925C1557.32 714.931 1546.65 713.664 1536 712.282C1532.91 711.88 1527.01 710.322 1525.49 714.163C1523 720.476 1529.61 735.425 1531.12 742C1535.04 759.071 1536.94 777.319 1542.22 794C1544.95 802.642 1550.51 810.57 1553.99 819C1586.66 898.159 1611.21 977.158 1624.56 1062C1654.78 1254 1633.8 1463.53 1552.31 1641C1508.19 1737.09 1437.16 1826.44 1339 1870.69C1293.41 1891.24 1244.32 1898.24 1195 1903.17C1178.61 1904.81 1161.48 1907.68 1145 1906.96C1103.14 1905.13 1060.26 1893.78 1022 1877.12C902.658 1825.18 824.234 1712.49 775.445 1596C742.052 1516.27 722.955 1431.45 711.718 1346C706.653 1307.48 698.604 1266.89 699.004 1228C699.328 1196.51 705.102 1164.26 708.845 1133C719.001 1048.17 736.595 965.282 766.153 885C825.566 723.63 951.842 563.697 1136 551.089C1164.68 549.126 1194.61 554.02 1223 557.718C1245.57 560.658 1269.59 562.358 1291 570.534C1312.98 578.931 1334.34 593.894 1354 606.655C1375.54 620.64 1397.53 633.973 1419 648.162C1435.58 659.119 1453.21 666.547 1470 676.609C1488.55 687.723 1506.07 700.905 1524 713M2317 626L2310.28 683L2302.55 745L2282.42 818L2245.42 952L2102.42 1469L1649 3106M2909 1707.42C2936.14 1703.82 2966.02 1709.62 2993 1712.84C3035.79 1717.97 3077.33 1725.79 3117 1743.21C3229.44 1792.57 3307.22 1905.97 3348.68 2018C3408.73 2180.25 3425.13 2354.83 3403.29 2526C3392.84 2607.82 3374.51 2689.96 3341.87 2766C3295.51 2874.03 3225.57 2976.84 3115 3026.69C3079.41 3042.73 3041.52 3050.65 3003 3055.72C2962.75 3061.01 2923.3 3064.91 2883 3058.56C2715.24 3032.14 2604.77 2886.54 2545.71 2738C2515.42 2661.84 2498.97 2581.85 2487.58 2501C2482.25 2463.18 2475 2423.21 2475 2385C2475 2346.17 2482.19 2305.42 2487.73 2267C2500.69 2177.08 2520.06 2088.59 2556.72 2005C2609.3 1885.1 2692.92 1775.01 2819 1727.43C2848 1716.48 2878.47 1711.48 2909 1707.42"/>
</svg>
