<?xml version="1.0" standalone="yes"?>
<svg width="4000" height="4500">
<path style="stroke:none;fill:none;" d="M1863 486.424C1875.63 484.766 1889.35 487.045 1902 487.911C1925.48 489.518 1948.78 490.839 1972 494.916C2010.43 501.662 2048.05 513.648 2083 531.248C2165.9 572.992 2232.06 645.078 2265.09 732C2277.19 763.846 2283.21 796.508 2288.59 830C2292.49 854.271 2297.82 880.392 2297.82 905C2297.82 940.99 2291 980.857 2283.49 1016C2245.03 1195.96 2102.55 1325.49 1952 1418.94C1898.09 1452.4 1842.15 1484.18 1785 1511.74C1767.46 1520.2 1745.66 1516.76 1728 1524.51C1714.46 1530.46 1701.43 1549.57 1691 1560L1646 1605C1641.33 1609.67 1630.56 1616.94 1630.12 1624C1629.08 1640.64 1637.67 1662.7 1641.35 1679C1644.87 1694.59 1646.13 1712.01 1651.66 1727C1656.38 1739.8 1664.65 1751.8 1670.75 1764C1689.06 1800.61 1709.29 1836.21 1729.14 1872C1827.04 2048.51 1930.07 2222.27 2051.37 2384C2092.19 2438.42 2132.33 2495.13 2177.61 2545.95C2185.22 2554.48 2198.88 2554.26 2208 2560.65C2216.13 2566.34 2229.52 2578.09 2233.97 2587C2235.96 2590.97 2235 2596.69 2235 2601C2235 2611.48 2237.23 2624.84 2234.68 2635C2232.4 2644.1 2218.48 2653.52 2212 2660L2153 2719C2067.88 2804.12 1967.79 2878.06 1864 2939.01C1774.94 2991.32 1678.76 3031.92 1576 3046.73C1525.81 3053.96 1475.4 3058.37 1425 3063.17C1385.03 3066.98 1343.12 3069.91 1303 3065.83C1244.65 3059.9 1185.36 3040.55 1132 3016.83C957.973 2939.47 834.014 2774.77 809.181 2586C806.354 2564.51 809.284 2544.4 811.845 2523C815.61 2491.53 820.742 2460.26 825.92 2429C848.847 2290.58 881.987 2156.06 969.499 2043C1071.33 1911.45 1209.27 1818.03 1348 1729.7C1364.23 1719.36 1382.76 1704.13 1401 1697.97C1419.05 1691.89 1440.78 1692.76 1458 1684.57C1466.73 1680.42 1474.23 1669.77 1481 1663L1527 1617C1534.59 1609.41 1547.28 1600.63 1552.11 1591C1555.02 1585.19 1550.42 1573.14 1549.2 1567C1545.18 1546.76 1541.52 1526.35 1538.08 1506C1531.01 1464.15 1513.59 1425.78 1499.05 1386C1480.9 1336.32 1464.67 1285.23 1451.48 1234C1436.48 1175.74 1423.21 1115.14 1419.09 1055C1418.08 1040.3 1421.28 1025.55 1422.83 1011C1426.32 978.504 1431.78 946.155 1437.58 914C1448.75 852.017 1459.95 786.35 1484.31 728C1512.58 660.26 1559.47 600.82 1620 559.025C1665.3 527.745 1717.84 505.436 1772 495.261C1802.24 489.58 1832.73 490.4 1863 486.424M2467 1463C2498.58 1463 2530.58 1465.83 2562 1468.83C2613.67 1473.77 2666.42 1478.48 2716 1495C2741.53 1503.51 2765.39 1514.69 2787 1530.9C2793.24 1535.58 2799.41 1540.57 2805 1546.01C2807.7 1548.65 2810.82 1553 2815 1552.9C2826.97 1552.6 2842.72 1541.86 2854 1537.68C2885.4 1526.06 2916.77 1514.62 2949 1505.43C3014.98 1486.62 3082.86 1476.43 3151 1469.83C3182.76 1466.76 3215.08 1463 3247 1463M2813 1554C2811.7 1569.93 2805.57 1586.43 2801.88 1602C2795.74 1627.92 2790.14 1653.98 2784.42 1680C2772.25 1735.43 2762.08 1791.49 2742.78 1845C2694.69 1978.34 2618.54 2100.13 2541.08 2218C2505.35 2272.37 2467.51 2325.25 2429.42 2378C2410.12 2404.74 2391.89 2434.56 2369.7 2458.96C2363.18 2466.13 2353.07 2467.97 2346 2475C2308.9 2511.9 2272 2549 2235 2586M1555 1592L1582 1605.65L1599 1607.63L1628 1621M2235 2638C2244.71 2647.71 2254.45 2660.74 2266 2668.18C2275 2673.98 2287.52 2674.44 2295.29 2682.13C2328.52 2715.06 2358.16 2751.55 2392 2783.96C2479.12 2867.4 2577.04 2939.95 2689 2986.01C2733.03 3004.12 2784.08 3022.55 2832 3025.79C2857.93 3027.55 2886.44 3021.39 2912 3017.42C2955.68 3010.65 2998.86 3002.01 3042 2992.42C3105.27 2978.37 3167.01 2960.97 3222 2925.56C3276.43 2890.52 3320.47 2840.39 3358.96 2789C3370.83 2773.17 3380.41 2755.21 3393 2740"/>
</svg>
