<?xml version="1.0" standalone="yes"?>
<svg width="4000" height="4500">
<path style="stroke:none;fill:none;" d="M1508 478C1572.5 527.573 1639.41 573.448 1700 628.17C1790.07 709.52 1868.93 800.604 1938.38 900C2074.82 1095.26 2170.22 1322.9 2225.66 1554C2248.02 1647.17 2262.82 1741.16 2275.29 1836C2284.03 1902.48 2287.52 1969.2 2292.09 2036C2294.28 2067.95 2297.56 2100.98 2296.95 2133C2294.24 2273.49 2279.73 2414.19 2258.3 2553C2220.76 2796.08 2143.07 3040.29 2012.47 3250C1953.24 3345.1 1887.49 3434.92 1809.96 3516C1715.55 3614.73 1605.44 3697.88 1496 3779"/>
</svg>
