<?xml version="1.0" standalone="yes"?>
<svg width="4000" height="4500">
<path style="stroke:none;fill:none;" d="M2004 593C2006.23 607.83 2004 624 2004 639C2004 677.011 2002.27 715.007 2002 753C2001.22 863.758 2002 974.45 2002 1085L2002 1209C2002 1212.43 2002.31 1215.97 2000.4 1219C1996.44 1225.27 1981.55 1233.92 1990.32 1242.68C1995.42 1247.78 2014.26 1246.43 2019.17 1241.85C2027.36 1234.21 2034.61 1223.75 2044 1217.59C2050.38 1213.4 2059.19 1214.33 2066 1210.81C2088.87 1198.96 2110.44 1184.61 2133 1172.23C2201.25 1134.78 2264.95 1089.09 2333 1051.09C2393.75 1017.17 2458.01 988.741 2517 951.772C2538.78 938.121 2558.58 922.5 2579 907M1418 902C1448.13 926.45 1478.19 951.239 1511 972.124C1606.81 1033.12 1713.26 1077.39 1813 1131.49C1853.62 1153.52 1893.36 1176.55 1933 1200.4C1942.71 1206.24 1954.55 1205.55 1964 1210.94C1972.66 1215.88 1979.97 1225.97 1987 1233M1991 1244C1982.77 1252.23 1974.12 1264.26 1964 1270.06C1955.54 1274.91 1944.58 1273.58 1936 1278.47C1911.67 1292.34 1888.15 1307.8 1864 1322.01C1783.66 1369.3 1700.99 1412.34 1619 1456.69C1551.04 1493.45 1479.41 1528.13 1422 1581M2017 1245C2025.54 1253.54 2033.99 1264.66 2044 1271.44C2050.64 1275.93 2059.89 1275.2 2067 1278.91C2096.28 1294.18 2126.59 1308.55 2155 1325.45C2231.13 1370.74 2307.81 1416.15 2386 1457.92C2452.79 1493.6 2524.33 1527.09 2582 1577M2002 1246C2002 1405.18 2011.63 1563.7 2004.17 1723C2002.4 1760.82 2002 1799.14 2002 1837C2002 1851.83 2006.47 1875.56 2000 1889"/>
</svg>
