<?xml version="1.0" standalone="yes"?>
<svg width="4000" height="4500">
<path style="stroke:none;fill:none;" d="M2011 473.594C2045.78 472.337 2083.04 476.074 2117 483.576C2346.1 534.177 2485.11 745.796 2564.19 952C2579.07 990.789 2593.36 1029.98 2604.59 1070C2655.89 1252.73 2686.14 1437.84 2699.09 1627C2703.15 1686.35 2708.7 1746.44 2708 1806C2706.95 1894.18 2698.8 1983.26 2690.17 2071C2673.27 2242.73 2643.79 2412.96 2592.19 2578C2527.7 2784.31 2411.15 3007.02 2200 3092.55C2136.93 3118.09 2071.22 3125.02 2004 3127.96C1964.43 3129.69 1921.8 3124.76 1883 3117C1849.08 3110.22 1815.3 3100.04 1784 3085.32C1749.86 3069.26 1717.35 3051.31 1687 3028.66C1526.75 2909.08 1444.62 2714.79 1392.26 2528C1354.36 2392.83 1330.44 2253.41 1315.83 2114C1307.73 2036.7 1302.22 1959.51 1296.91 1882C1294.41 1845.5 1291.57 1808.63 1292 1772C1292.87 1699.53 1299.6 1626.07 1306.83 1554C1324.59 1377.09 1354.12 1203.35 1406.43 1033C1472.39 818.239 1595.76 583.177 1820 502.435C1882.19 480.043 1945.71 475.953 2011 473.594"/>
</svg>
