<?xml version="1.0" standalone="yes"?>
<svg width="4000" height="4500">
<path style="stroke:none;fill:none;" d="M1464 804C1523.9 779.097 1581.54 750.327 1643 729.078C1698.25 709.973 1760.08 698.264 1818 690.718C1877.76 682.934 1938.98 690.891 1990 724.715C2000.62 731.754 2013.15 739.74 2021.68 749.259C2027.6 755.866 2024 775.487 2024 784L2024 879L2024 1253L2024 2485L2024 2822L2024 2914C2024 2923.56 2027.62 2942.41 2022.97 2950.83C2018.1 2959.65 2005.62 2967.28 1998 2973.73C1973.95 2994.06 1947.46 3011.54 1920 3026.86C1832.39 3075.74 1729.4 3086.73 1631 3091.04C1587.78 3092.93 1544.29 3095 1501 3095M2024 2952C2061.53 2989.53 2098.44 3025.28 2147 3048.22C2202.05 3074.22 2265.86 3082.87 2326 3087.09C2399.13 3092.22 2472.62 3095 2546 3095"/>
</svg>
