<?xml version="1.0" standalone="yes"?>
<svg width="4000" height="4500">
<path style="stroke:none;fill:none;" d="M1178 1183C1190.58 1138.9 1208.27 1095.45 1225.55 1053C1288.05 899.462 1378.81 752.35 1528 670.025C1595.91 632.55 1670.55 616.501 1746 602.389C1794.63 593.293 1843.82 586.099 1893 580.834C1914.45 578.537 1938.47 573.111 1960 575.17C2149.55 593.287 2329.01 698.019 2428.07 862C2477.74 944.2 2505.76 1037.71 2514.83 1133C2517.16 1157.43 2511.06 1184.71 2508.16 1209C2502.31 1257.82 2495.55 1306.5 2487.41 1355C2476.87 1417.88 2463.84 1479.58 2443.16 1540C2328.02 1876.41 2072.22 2145.24 1834.91 2400C1738.5 2503.5 1637.73 2603.11 1542.83 2708C1528.68 2723.63 1513.89 2739.08 1499 2754C1490.62 2762.4 1479.06 2771.72 1473.09 2782C1461.92 2801.22 1457.57 2828.76 1450.97 2850C1446.95 2862.94 1437.1 2880.5 1437.08 2894C1437.06 2900.97 1449.42 2909.42 1454 2914L1497 2957C1502.04 2962.04 1508.58 2971.7 1516 2972.85C1528.08 2974.73 1541.76 2973 1554 2973L1632 2973L1873 2973L2299 2973L2454 2973L2503 2973C2510.61 2973 2519.55 2974.28 2527 2972.61C2541.32 2969.39 2557.22 2956.65 2570 2949.42C2600.93 2931.95 2632.13 2914.81 2660 2892.55C2733.44 2833.89 2779.75 2746.55 2823.31 2665C2835.88 2641.49 2847.09 2616.72 2861 2594"/>
</svg>
