<?xml version="1.0" standalone="yes"?>
<svg width="4000" height="4500">
<path style="stroke:none;fill:none;" d="M1222 1047C1290.11 903.8 1372.08 763.544 1505 671.039C1566.11 628.51 1633.94 598.018 1706 579.58C1739.01 571.134 1773.32 566.689 1807 561.729C1843.25 556.389 1879.57 552.356 1916 548.83C1936.03 546.892 1956.83 543.709 1977 545.089C2153.84 557.196 2318.82 664.427 2389.5 828C2403.48 860.354 2413.08 895.274 2418.75 930C2420.78 942.429 2424.18 956.4 2423.87 969C2422.73 1015.15 2408.94 1064.19 2398.65 1109C2378.36 1197.42 2349.26 1278.21 2296.8 1353C2274.77 1384.4 2249.62 1414.18 2222.92 1441.7C2209.66 1455.37 2189.99 1468.15 2179.73 1484C2176.08 1489.64 2174.95 1497.64 2172.97 1504C2168.81 1517.41 2164.11 1530.68 2159.67 1544C2155.88 1555.37 2152.06 1566.75 2147.95 1578C2145.84 1583.78 2142.09 1590.69 2142.69 1597C2144.98 1621.38 2153.25 1645.64 2156.71 1670C2157.82 1677.77 2157.48 1694.56 2162.59 1700.61C2167.6 1706.53 2179.95 1709.21 2187 1711.96C2201.2 1717.5 2215.54 1724.63 2229 1731.78C2276.61 1757.07 2322.82 1784.82 2363 1821.17C2472.15 1919.92 2542.12 2047.42 2569.39 2192C2585.43 2277.04 2569.57 2365.24 2556.42 2450C2547.71 2506.17 2538.53 2562.67 2521.49 2617C2499.47 2687.21 2465.17 2753.61 2421.85 2813C2328.77 2940.6 2190.81 3028.27 2039 3068.24C1987.9 3081.7 1934.44 3085.93 1882 3091.17C1796.31 3099.74 1705.67 3102.06 1621 3083.19C1519.4 3060.54 1424.48 3011.81 1337 2957M2161 1700C2147.77 1707.07 2125.86 1705.77 2111 1707.8C2073.99 1712.88 2036.99 1718.21 2000 1723.42C1916.22 1735.23 1832.71 1748.94 1749 1761.27C1712.76 1766.61 1674.62 1777.25 1638 1778"/>
</svg>
