<?xml version="1.0" standalone="yes"?>
<svg width="4000" height="4500">
<path style="stroke:none;fill:none;" d="M2390 513C2386.8 536.776 2377.98 560.8 2371.88 584C2360.5 627.291 2349 670.578 2338.13 714C2333.65 731.88 2325.99 750.669 2324.02 769C2320.16 805.057 2324 843.703 2324 880L2324 1106L2324 1792L2324 2163L2324 2262C2324 2271.86 2327.74 2291.54 2322.4 2300C2317.41 2307.9 2301.15 2326.39 2292 2328.68C2285.63 2330.28 2277.55 2329 2271 2329L2227 2329L2087 2329L1387 2329L1244 2329L1200 2329C1193.15 2329 1184.66 2330.35 1178 2328.68C1172.74 2327.36 1168.67 2321.67 1165 2318L1139 2292C1135.58 2288.58 1129.17 2284.16 1128.62 2279C1127.87 2272.02 1132.35 2262.72 1134.12 2256C1138.67 2238.69 1143.28 2221.37 1147.63 2204C1151.65 2187.9 1154.02 2167.85 1161.43 2153C1167.58 2140.67 1177.62 2129.24 1185.58 2118C1198.98 2099.05 1212.17 2079.95 1225.58 2061C1262.3 2009.11 1298.83 1957.08 1335.28 1905C1547.88 1601.28 1762.12 1298.72 1974.72 995C2008.37 946.933 2042.57 899.235 2075.98 851C2086.19 836.25 2096.76 821.749 2106.98 807C2112.02 799.714 2117.1 789.125 2124.18 783.699C2130.13 779.147 2139.14 777.072 2146 774.15C2162.6 767.081 2179.29 760.203 2196 753.396C2215.38 745.502 2234.62 737.285 2254 729.396C2259.04 727.345 2269.59 720.353 2275 722.241C2280.62 724.202 2285.88 731.877 2290 736L2323 769M2323 2300C2330.8 2310.84 2326 2335.89 2326 2349L2326 2478L2326 2970M2327 2329L2760 2329"/>
</svg>
