<?xml version="1.0" standalone="yes"?>
<svg width="4000" height="4500">
<path style="stroke:none;fill:none;" d="M2721 410C2697.06 443.711 2678.87 479.305 2648 507.91C2612.04 541.235 2562.71 561.207 2520 584.309C2490.75 600.127 2460.65 621.368 2428 629.116C2385.06 639.308 2336.89 635 2293 635L2064 635L1918 635L1873 635C1866.13 635 1857.62 633.663 1851 635.649C1838.27 639.466 1825.89 648.804 1814 654.753C1783.42 670.055 1753.24 686.261 1723 702.219C1705.6 711.402 1679.15 719.268 1665.21 733.213C1657.33 741.102 1653.72 756.069 1648.75 766C1635.87 791.764 1623.71 817.83 1611.69 844C1585.19 901.711 1556.19 958.28 1529.69 1016C1520.59 1035.82 1506.25 1055.95 1500.49 1077C1492.23 1107.18 1489.04 1139.3 1483 1170C1480.64 1182 1473.28 1201 1475.52 1213C1476.86 1220.16 1483.88 1227.91 1487.72 1234L1514.72 1277C1522.21 1288.93 1529.56 1310.14 1541.09 1318.41C1548.05 1323.4 1559.9 1322.03 1568 1323.67C1592.84 1328.68 1618.21 1331.29 1643 1336.66C1725.11 1354.44 1805.92 1374.07 1886 1399.66C2101.78 1468.6 2302.16 1587.81 2434.28 1776C2511.64 1886.2 2558.71 2025.25 2563.96 2160C2564.86 2183.11 2561.67 2206.95 2560.09 2230C2557.02 2274.76 2552.78 2319.42 2547.28 2364C2533.71 2474.2 2512.53 2580.77 2462.73 2681C2392.17 2823.03 2277.31 2944.8 2136 3017.74C2050.26 3062 1959.12 3080.66 1864 3090.17C1780.1 3098.56 1695.74 3100.86 1613 3080.96C1561.93 3068.68 1512.42 3047.16 1465 3025.02C1430.81 3009.05 1397.96 2991.16 1365 2972.86C1345.34 2961.95 1322.96 2950.89 1306 2936"/>
</svg>
