<?xml version="1.0" standalone="yes"?>
<svg width="4000" height="4500">
<path style="stroke:none;fill:none;" d="M1437 1535C1415.46 1558.46 1402.47 1591.15 1390.13 1620C1351.67 1709.88 1339.53 1811.39 1332.91 1908C1330.36 1945.23 1326.1 1982.6 1327.01 2020C1328.58 2083.92 1335.47 2148.36 1341.83 2212C1367.94 2473.12 1432.5 2761.55 1627.16 2951.87C1726.24 3048.74 1851.99 3108.69 1990 3121.83C2028.91 3125.53 2068.12 3122.75 2107 3120.09C2227.22 3111.86 2346 3071.83 2434 2985.99C2523.91 2898.28 2581.91 2790.14 2619.19 2671C2639.9 2604.83 2652.39 2536.56 2662.27 2468C2669.56 2417.44 2675.31 2366.8 2680.17 2316C2682.28 2293.87 2685.43 2271.25 2685.43 2249C2685.43 2202.73 2677.33 2155.57 2670.3 2110C2638.95 1906.97 2545.12 1696.12 2362 1587.55C2319.19 1562.17 2273.93 1542.1 2226 1528.43C2191.27 1518.52 2153.2 1509.62 2117 1508.04C2068.19 1505.9 2018.2 1513.78 1970 1520.73C1904.69 1530.14 1840.33 1542.79 1778 1564.86C1746.66 1575.95 1715.89 1588.7 1686 1603.26C1670.75 1610.69 1655.85 1621.13 1640 1627.05C1629.32 1631.04 1617.07 1632.11 1606 1634.87C1593.64 1637.96 1581.27 1641.01 1569 1644.42C1564.27 1645.74 1556.91 1649.51 1552 1648.22C1547.64 1647.08 1544.05 1642.05 1541 1639L1520 1618C1493.56 1591.56 1464.61 1566.22 1440.1 1538C1433.92 1530.88 1439.52 1516.44 1441.2 1508C1446.69 1480.37 1450.02 1451.73 1459.07 1425C1496.51 1314.47 1545.7 1208.43 1608.56 1110C1758.66 874.973 1980.22 679.183 2235 564.312C2399.27 490.248 2576.62 446.546 2755 424"/>
</svg>
