<?xml version="1.0" standalone="yes"?>
<svg width="4000" height="4500">
<path style="stroke:none;fill:none;" d="M1132 1042C1190.27 928.559 1247.81 805.194 1339 714C1364.72 688.285 1393.4 666.909 1424 647.456C1435.57 640.102 1447.27 631.5 1460 626.213C1465.91 623.758 1473.71 625 1480 625L1522 625L1666 625L2166 625L2494 625L2548 625C2555.09 625 2565.3 623.135 2572 625.604C2577.82 627.751 2582.71 634.715 2587 639C2590.82 642.819 2597.75 647.598 2599.23 653C2602.68 665.622 2594.99 687.045 2593.28 700C2588.24 738.365 2582.79 776.698 2577.27 815C2574.98 830.868 2573.99 847.351 2570.49 863C2567.21 877.641 2561.04 891.654 2556.72 906C2543.16 951.006 2527.2 995.405 2512.33 1040C2478.72 1140.84 2446.62 1242.15 2413 1343C2222.65 1914.06 2036.26 2486.59 1850 3059"/>
</svg>
