<?xml version="1.0" standalone="yes"?>
<svg width="4000" height="4500">
<path style="stroke:none;fill:none;" d="M2007 477.849C2100.56 477.849 2196.16 496.301 2280 538.981C2381.51 590.655 2462.88 675.806 2505.35 782C2521.45 822.242 2531.02 864.354 2538.08 907C2543.03 936.912 2551.29 969.59 2549.96 1000C2549.01 1021.62 2544.74 1043.63 2541.42 1065C2535.69 1101.96 2528.6 1138.43 2516.81 1174C2490.04 1254.77 2441.58 1327.19 2383.83 1389.04C2332.1 1444.43 2272.29 1492.06 2210 1534.97C2189.05 1549.41 2167.59 1563.13 2146 1576.58C2136.65 1582.4 2124.47 1587.35 2116.27 1594.64C2105.38 1604.33 2104.87 1623.11 2094 1634L2028 1700C2022.7 1705.3 2005.91 1717.06 2006.1 1725C2006.3 1732.82 2012.91 1742.78 2015.8 1750C2018.75 1757.38 2020.99 1766.5 2025.65 1772.99C2032.67 1782.77 2046.43 1789.95 2056 1797.13C2077.63 1813.35 2099.3 1829.51 2121 1845.63C2233.77 1929.4 2351.25 2015.47 2445.83 2120C2512.32 2193.48 2569.51 2275.26 2598.23 2371C2610.42 2411.63 2620.69 2457.41 2621 2500C2621.32 2545.56 2611.03 2594.2 2603.25 2639C2594.21 2691.04 2585.6 2744.24 2567.36 2794C2538.59 2872.5 2488.72 2942.57 2424 2995.54C2303.68 3094.01 2152.3 3122.2 2001 3124C1929.5 3124.85 1851.19 3114.53 1784 3089.09C1705.42 3059.33 1633.98 3020.64 1572 2962.91C1471.48 2869.29 1415.35 2740.93 1394.58 2607C1389.66 2575.33 1382.23 2541.1 1383.01 2509C1383.74 2479.14 1390.05 2448.42 1394.92 2419C1412.81 2311.02 1448.73 2211.89 1510.5 2121C1561.2 2046.4 1626 1982 1693 1922.17C1712.28 1904.95 1731.8 1887.79 1752 1871.67C1763.4 1862.56 1778.06 1853.76 1787.58 1842.71C1792.72 1836.75 1792.86 1828.04 1798.13 1822C1820.28 1796.65 1846.19 1773.81 1870 1750C1876.11 1743.89 1893.93 1731.61 1895.39 1723C1896.45 1716.71 1886.37 1701.17 1883.72 1695C1880.07 1686.52 1877.24 1675.38 1871.5 1668.09C1864.4 1659.07 1851.24 1651.8 1842 1644.99C1828.36 1634.92 1815.41 1623.75 1802 1613.33C1700.1 1534.21 1600.39 1444.76 1520.66 1343C1462.56 1268.84 1418.61 1182.95 1405.29 1089C1398.72 1042.72 1411.34 991.656 1419.58 946C1429.85 889.043 1440.1 829.737 1462.21 776C1490.67 706.832 1538.06 647.641 1596 600.805C1712.25 506.84 1861.23 477.849 2007 477.849M1897 1723L2005 1723"/>
</svg>
