<?xml version="1.0" standalone="yes"?>
<svg width="4000" height="4500">
<path style="stroke:none;fill:none;" d="M2595 1935L2545 1885C2539.7 1879.7 2531.65 1867.81 2524 1866.36C2517.71 1865.17 2509.38 1872.55 2504 1875.25C2488.1 1883.22 2471.89 1890.06 2455 1895.67C2438.4 1901.18 2418.53 1903.7 2403 1911.67C2394.72 1915.92 2387.61 1922.94 2380 1928.28C2362.86 1940.32 2345.68 1952.2 2328 1963.46C2290.18 1987.54 2249.4 2008.03 2208 2025.14C2137.97 2054.08 2064.24 2069.65 1989 2077.17C1942.05 2081.86 1893.27 2090.15 1846 2086.91C1762.96 2081.23 1679.74 2047.37 1611 2001.77C1439.63 1888.07 1357.22 1684.35 1324.68 1489C1318.18 1450.03 1311.98 1409.59 1311.01 1370C1310.28 1340.07 1314.86 1309.74 1317.83 1280C1322.95 1228.82 1329.69 1177.85 1337.58 1127C1353.45 1024.67 1378.83 923.041 1423.22 829C1461.18 748.582 1507.26 666.532 1574 606.17C1634.71 551.26 1710.21 512.233 1790 493.887C1827.77 485.204 1865.54 482.543 1904 479.911C1970.91 475.33 2040.41 479.033 2105 499.025C2141.53 510.331 2177.46 524.05 2211 542.514C2431.87 664.093 2540.69 922.13 2589.29 1158C2598.57 1203.09 2607.66 1248.3 2613.28 1294C2619.89 1347.59 2626.38 1401.12 2630.09 1455C2632.26 1486.59 2636.15 1518.3 2636.15 1550C2636.15 1598.83 2630.81 1648.41 2626.17 1697C2620.35 1757.93 2616.06 1819.41 2606.7 1880C2603.67 1899.63 2597.96 1918.55 2594.31 1938C2585.34 1985.72 2585.11 2037.46 2570.96 2084C2546.19 2165.48 2511.26 2246.38 2472.26 2322C2333.36 2591.29 2128.31 2821.42 1864 2973.13C1726.25 3052.2 1574.87 3105.44 1420 3139.01C1370.39 3149.77 1320.41 3160.63 1270 3167"/>
</svg>
