<?xml version="1.0" standalone="yes"?>
<svg width="4000" height="4500">
<path style="stroke:none;fill:none;" d="M1572 1080C1551.71 1053.37 1524.26 1025.83 1513.99 993C1509.98 980.196 1509.2 965.293 1507.78 952C1503.29 910.322 1506.6 871.987 1514.8 831C1522.51 792.44 1528.31 750.234 1544.09 714C1564.95 666.15 1602.4 627.475 1643 595.662C1734.36 524.077 1847.2 493.709 1961 485.911C2021.73 481.75 2080.43 481.001 2140 496.756C2218.63 517.554 2296.27 551.782 2360 603.197C2409.31 642.979 2452.67 687.469 2487 741C2522.21 795.903 2540.7 855.531 2553.4 919C2561.42 959.086 2573.1 1002.98 2573.15 1044C2573.2 1085.03 2562.26 1128.67 2555.25 1169C2525.16 1342.2 2450.02 1502.29 2363.72 1654C2334.56 1705.26 2303.36 1755.41 2273.08 1806C2231.87 1874.84 2192.54 1945.78 2161.86 2020C2127.47 2103.19 2100 2189.73 2082 2278C2075.3 2310.86 2069.39 2343.87 2064.27 2377C2061.27 2396.47 2060.61 2416.85 2056 2436"/>
</svg>
