<?xml version="1.0" standalone="yes"?>
<svg width="4000" height="4500">
<path style="stroke:none;fill:none;" d="M2874 2918C2830.95 2934.7 2789.1 2954.55 2746 2971.19C2652.95 3007.12 2558.23 3039.18 2461 3061.76C2371.49 3082.55 2281.35 3091.83 2190 3098.09C1911.9 3117.14 1616.1 3055.45 1379 2904.56C1182.79 2779.7 1021.34 2606.07 921.63 2395C853.249 2250.26 817.191 2096.74 801.83 1938C797.836 1896.73 792.51 1854.49 793.004 1813C793.454 1775.17 798.186 1736.66 801.83 1699C839.351 1311.27 1030.44 924.331 1358 701.194C1807.64 394.891 2443.6 413.113 2875 745.651C3041.84 874.26 3175.2 1049.51 3247.3 1248C3343.92 1513.94 3325.96 1815.77 3208.31 2072C3162.64 2171.45 3099.34 2266.07 3019 2340.91C2960.99 2394.95 2891.87 2441.66 2815 2463.57C2777.83 2474.17 2739.3 2477.46 2701 2481.17C2683.28 2482.88 2664.84 2485.54 2647 2483.83C2576.41 2477.08 2514.43 2442.28 2481.31 2378C2462.21 2340.93 2453.48 2299.39 2444.35 2259C2439.5 2237.53 2432.07 2212.1 2432.88 2190C2433.47 2173.53 2438.93 2156.26 2441.75 2140C2453.53 2072.2 2475.74 2007.07 2494.57 1941C2519.54 1853.42 2540.04 1763 2553.3 1673C2561.94 1614.31 2569.57 1555.16 2575.07 1496C2576.44 1481.31 2578.71 1466.7 2580.07 1452C2580.48 1447.62 2582.87 1440.53 2580.31 1436.58C2574.9 1428.23 2565.03 1421.03 2558 1414C2540.26 1396.26 2522.28 1379.02 2502 1364.16C2492.37 1357.09 2478.43 1351.42 2470.42 1342.67C2460.44 1331.77 2455.82 1313.63 2447.94 1301C2427.63 1268.47 2401.17 1237.62 2367 1219.04C2343.8 1206.42 2318.6 1200.2 2293 1194.58C2268.55 1189.21 2241.15 1182.88 2216 1183.46C2123.89 1185.56 2042.09 1227.58 1968 1278.98C1922.84 1310.3 1883.22 1348.94 1845.91 1389C1694.07 1552.02 1613.6 1765 1595.91 1985C1593.31 2017.41 1587.22 2050.44 1588.01 2083C1588.56 2105.22 1592.8 2128 1595.87 2150C1608.85 2243.13 1642.28 2336.13 1714 2400.17C1738.62 2422.15 1768.85 2441.47 1801 2450.22C1812.41 2453.32 1827.26 2451.53 1839 2451.08C1865.29 2450.08 1891.1 2447.46 1917 2442.61C1959.9 2434.59 2003.88 2428.64 2045 2413.47C2085.38 2398.57 2123.29 2373.17 2156 2345.56C2181.32 2324.19 2205.06 2300.35 2226.41 2275C2237.75 2261.53 2247.67 2242.62 2261.09 2231.39C2267.69 2225.87 2278.14 2222.99 2286 2219.58C2300.18 2213.41 2314.17 2206.67 2328 2199.75C2341.94 2192.78 2360.73 2179.36 2376 2176.77C2381.48 2175.84 2387.87 2180.49 2393 2182.03C2405.49 2185.78 2418.95 2189.93 2432 2191M2662 1259C2648.94 1293.63 2643.35 1332.3 2633.42 1368C2630.03 1380.2 2629.01 1399.67 2621.44 1409.91C2613.56 1420.55 2594.5 1429.62 2583 1436"/>
</svg>
