<?xml version="1.0" standalone="yes"?>
<svg width="4000" height="4500">
<path style="stroke:none;fill:none;" d="M1982 469C1984.94 503.932 1983 539.919 1983 575C1983 627.702 1984 680.366 1984 733L1984 806C1984 816.756 1981.75 830.453 1984.37 840.895C1986.29 848.553 2004.75 853.381 2010.96 857.468C2017.46 861.757 2019.63 871.194 2022.69 878C2053.28 945.847 2081.06 1014.93 2111.14 1083C2206.86 1299.65 2294.36 1520.07 2391.69 1736C2413.15 1783.61 2433.22 1831.85 2453.42 1880C2463.25 1903.42 2476.75 1926.75 2484.23 1951C2489.44 1967.91 2490.64 1986.64 2494 2004C2497.93 2024.28 2501.07 2044.72 2505 2065C2506.32 2071.8 2510.9 2084.39 2508.54 2091C2505.31 2100.08 2491.74 2109.26 2485 2116L2444 2157C2437.46 2163.54 2430.84 2172.45 2423 2177.4C2418.02 2180.54 2409.67 2179 2404 2179L2359 2179L2191 2179L1560 2179L1366 2179C1357.94 2179 1347.83 2180.64 1340 2178.68C1335.95 2177.67 1333.26 2172.53 1329 2172.68C1325.48 2172.8 1321.06 2176.16 1318 2177.78C1308.72 2182.68 1292.43 2188.17 1285.82 2196.38C1281.28 2202.01 1279.27 2211.32 1276.6 2218C1270.84 2232.39 1264.9 2246.67 1258.99 2261C1239.51 2308.21 1219.63 2355.38 1201.19 2403C1174.78 2471.17 1145.95 2538.83 1117.13 2606C1088.07 2673.72 1061.3 2740.49 1046.8 2813C1037.8 2858.02 1029.4 2903.25 1019.12 2948C1016.44 2959.65 1014.02 2971.35 1011.35 2983C1010.33 2987.42 1007.46 2993.65 1009.77 2998C1013.78 3005.54 1023.38 3012.58 1030 3017.79C1050.39 3033.85 1074.43 3046.06 1099 3054.33C1184.73 3083.19 1278.34 3087 1368 3087M1330 2170C1344.09 2125.46 1340.45 2075.38 1355.09 2031C1366.18 1997.37 1382.87 1964.66 1396.58 1932L1475.58 1744C1543.29 1582.63 1610.13 1420.81 1679.15 1260C1711.97 1183.54 1743.33 1106.46 1776.15 1030C1785.58 1008.04 1794.78 985.986 1804.15 964C1807.94 955.098 1810.85 941.495 1817.42 934.329C1828.53 922.202 1851.63 915.103 1866 907.139C1904.2 885.962 1942.91 861.276 1983 844M2511 2093C2521.55 2097.39 2537.8 2103.87 2545.73 2112.21C2550.48 2117.22 2552.58 2125.75 2555.28 2132C2561.62 2146.69 2568.04 2161.33 2574.42 2176C2592.41 2217.34 2610.73 2258.53 2628.42 2300C2685.54 2433.86 2750.83 2566.33 2792.28 2706C2806.93 2755.36 2813.93 2807.33 2822.75 2858C2825.54 2874.03 2828.41 2890.05 2831.6 2906C2832.79 2911.95 2832.72 2920.22 2835.56 2925.61C2839.41 2932.9 2857.72 2938.61 2865 2942.25C2892.6 2956.05 2920.41 2969.45 2948 2983.25C3022.49 3020.49 3100.97 3055.14 3183 3071.55C3214.95 3077.94 3247.55 3081.69 3280 3083.91C3299.9 3085.27 3320.22 3084.5 3340 3087M2835 2927L2769 2993C2754.12 3007.88 2740.03 3023.91 2722 3035.09C2691.7 3053.87 2658.51 3063.84 2624 3071.42C2549.43 3087.8 2471.97 3087 2396 3087M652 3087C670.785 3084.63 690.094 3085.21 709 3083.91C740.457 3081.75 772.176 3077.38 803 3070.58C874.621 3054.76 939.116 3024.34 1007 2998"/>
</svg>
