<?xml version="1.0" standalone="yes"?>
<svg width="4000" height="4500">
<path style="stroke:none;fill:none;" d="M769 515C822.353 515 875.829 518.271 929 521.911C1039.21 529.456 1150.06 544.698 1241 612.874C1258.87 626.267 1275.28 640.972 1292 655.715C1300.5 663.212 1312.3 671.35 1318.4 681C1323.4 688.927 1320 706.79 1320 716L1320 807L1320 1145L1320 2412L1320 2783L1320 2882C1320 2891.86 1323.74 2911.54 1318.4 2920C1313.68 2927.47 1305.23 2932.88 1299 2939C1280.17 2957.52 1259.32 2974.58 1238 2990.15C1104.51 3087.65 926.88 3083.74 769 3087M1320 681C1363.67 637.333 1405.84 582.682 1466 561.695C1503.25 548.699 1542.21 551 1581 551L1743 551C1936.26 551 2133.09 555.139 2315 628.547C2398.28 662.154 2479.09 709.442 2539.4 777.169C2610.94 857.512 2648.52 952.177 2667.42 1057C2672.83 1086.95 2681.97 1119.48 2681.97 1150C2681.97 1183.88 2671.43 1220.87 2664.8 1254C2655.11 1302.46 2644.18 1351.78 2623.82 1397C2577.7 1499.49 2494.08 1575.68 2394 1624.37C2369.47 1636.31 2344.35 1646.64 2319 1656.69C2309.93 1660.29 2295.73 1661.86 2288.39 1668.51C2282.97 1673.42 2279.75 1682.69 2276.15 1689C2268.44 1702.51 2260.4 1715.78 2252.19 1729C2248.67 1734.67 2243.41 1746.88 2236.96 1749.4C2230.42 1751.95 2219.97 1750 2213 1750C2194.98 1750 2177.01 1749.62 2159 1749.54C2094.56 1749.26 2030.31 1746.59 1966 1745.01C1751.23 1739.76 1536.06 1741 1321 1741M2240 1751C2247.46 1764.4 2256.8 1776.98 2264.95 1790C2268.55 1795.75 2271.7 1804.12 2277.19 1808.3C2283.46 1813.08 2292.77 1813.56 2300 1816.23C2320.14 1823.66 2340.77 1829.87 2361 1837.09C2413.95 1855.98 2465.74 1880.46 2514 1909.28C2600.57 1960.98 2672.7 2037.34 2715.46 2129C2739.18 2179.84 2753.36 2233.4 2765.42 2288C2771.65 2316.2 2777.27 2344.53 2782.08 2373C2784.02 2384.5 2788.07 2397.31 2787.74 2409C2787.25 2426.48 2782.24 2444.79 2779.25 2462C2772.37 2501.6 2764.16 2540.89 2754.88 2580C2742.47 2632.38 2724.43 2684.02 2697.77 2731C2678.24 2765.41 2655.39 2797.65 2628.83 2827C2559.18 2903.98 2463.92 2954.7 2367 2988.34C2198.7 3046.77 2018.23 3051 1842 3051C1761.47 3051 1680.25 3053.59 1600 3048.09C1542.48 3044.15 1482.59 3040.02 1430 3013.73C1386.38 2991.92 1353.95 2953.95 1320 2920"/>
</svg>
