<?xml version="1.0" standalone="yes"?>
<svg width="4000" height="4500">
<path style="stroke:none;fill:none;" d="M3066 463C3062.02 479.539 3061.41 497.218 3058.2 514C3050.46 554.333 3038.25 594.25 3019.75 631C3010.54 649.314 2998.47 666.464 2984 681C2978.98 686.042 2965.03 695.594 2964.39 703C2964.02 707.337 2967.63 713.846 2969 718C2973.2 730.708 2978.04 743.213 2981.98 756C2995.79 800.874 3009.7 845.59 3021.71 891C3055.61 1019.13 3071.79 1150.05 3096 1280M3122 2677C3090.05 2717.28 3046.97 2752.07 3008 2785.3C2894.33 2882.22 2764.35 2962.93 2623 3012.51C2498.04 3056.34 2371.63 3076.07 2240 3085.09C2181.1 3089.12 2121.93 3092.95 2063 3088.91C1934.85 3080.13 1805.13 3050.72 1687 3000.13C1600.45 2963.06 1516.74 2914.76 1444 2854.68C1225 2673.79 1101.02 2406.97 1049.69 2132C1031.08 2032.31 1017.5 1928.44 1015.01 1827C1014.53 1807.05 1017.55 1786.88 1018.91 1767C1022.53 1714.21 1028.19 1661.65 1033.83 1609C1064.37 1323.99 1164.93 1042.69 1365.09 831.985C1413 781.553 1466.17 736.034 1523 695.965C1573.9 660.073 1628.06 627.512 1685 602.139C1772.31 563.227 1862.46 533.015 1957 517.081C2040.29 503.043 2121.96 501.283 2206 504.961C2320.61 509.976 2431.66 524.479 2542 557.72C2602.72 576.011 2659.9 603.094 2719 625.74C2763.36 642.737 2809.69 652.947 2855 667.025C2890.7 678.117 2926.66 693.595 2963 702"/>
</svg>
