<?xml version="1.0" standalone="yes"?>
<svg width="4000" height="4500">
<path style="stroke:none;fill:none;" d="M656 515C704.672 515 753.487 519.571 802 522.911C878.139 528.153 956.877 537.11 1027 569.309C1056.24 582.733 1083.11 601.154 1108 621.389C1124.93 635.155 1141.56 649.58 1157 665C1162.07 670.066 1169.47 675.087 1173.4 681.039C1178.8 689.223 1175 709.344 1175 719L1175 817L1175 1188L1175 2455L1175 2793L1175 2884C1175 2893.21 1178.4 2911.07 1173.4 2919C1167.83 2927.82 1157.68 2935.23 1150 2942.17C1136.22 2954.64 1122.53 2966.98 1108 2978.6C1013.63 3054.06 898.172 3072.89 781 3080.91C739.658 3083.74 697.058 3081.81 656 3087M1175 681C1210.54 645.463 1244.33 604.646 1290 581.809C1338.86 557.377 1395.55 554.3 1449 551.961C1517.11 548.98 1585.78 551 1654 551C1901.7 551 2163.2 580.638 2390 686.89C2504.34 740.457 2609.26 809.494 2703 894.17C2916.88 1087.36 3028.94 1365.68 3057.17 1648C3061.63 1692.65 3068.46 1738.13 3069 1783C3069.31 1809.51 3065.69 1836.62 3063.17 1863C3057.61 1921.17 3051.51 1979.15 3043.17 2037C3009.64 2269.56 2920.76 2498.38 2759.91 2673C2560.85 2889.11 2275.92 2989.36 1992 3030.27C1845.83 3051.33 1698.42 3051 1551 3051C1466.58 3051 1372.58 3055.77 1294 3019.69C1245.82 2997.57 1210.76 2955.76 1174 2919"/>
</svg>
