<?xml version="1.0" standalone="yes"?>
<svg width="4000" height="4500">
<path style="stroke:none;fill:none;" d="M863 515C909.849 515 957.383 518.375 1004 522.83C1104.23 532.409 1201.93 547.738 1287 605.656C1308.28 620.145 1327.71 636.733 1347 653.715C1356.17 661.784 1368.83 670.601 1375.4 681C1380.4 688.927 1377 706.79 1377 716L1377 807L1377 1145L1377 2412L1377 2783L1377 2882C1377 2891.86 1380.74 2911.54 1375.4 2920C1370.69 2927.46 1362.34 2933.05 1356 2939.04C1340.4 2953.77 1324.01 2967.57 1307 2980.65C1212.77 3053.14 1097.72 3072.98 982 3080.91C942.637 3083.61 902.089 3082.06 863 3087M1377 681C1416.16 641.837 1455.95 589.764 1509 569.062C1552.95 551.909 1600.62 553 1647 553L1820 553C2033.65 553 2247.44 554 2461 554C2552.81 554 2646.27 559.131 2737 574.247C2759.87 578.057 2782.45 582.77 2805 588.116C2812.14 589.807 2824.98 590.579 2830.49 595.703C2837.37 602.099 2840.11 617.318 2843 626C2851.15 650.464 2858.93 674.888 2864.88 700C2888.22 798.471 2897.36 897.969 2910 998M2683 1319C2678.82 1416.37 2667.63 1516.69 2646.58 1612C2640.54 1639.33 2633.04 1666.91 2622.8 1693C2619.25 1702.05 2615.74 1711.16 2611.69 1720C2609.79 1724.16 2606.24 1729.29 2606.27 1734C2606.31 1739.24 2610.56 1745.34 2612.69 1750C2616.73 1758.82 2620.18 1767.92 2623.58 1777C2634.63 1806.56 2642.76 1837.15 2649.34 1868C2669.3 1961.59 2675.49 2057.95 2683 2153M1378 1735L2605 1734M3097 2493C3053.57 2621.57 3001.44 2749.37 2937.23 2869C2919.67 2901.72 2900.88 2934.66 2879.42 2965C2872.98 2974.12 2866.25 2989.91 2856.82 2996.06C2849.07 3001.11 2835.92 3001.31 2827 3003.21C2804.1 3008.08 2781.09 3012.25 2758 3016.08C2671.68 3030.38 2585.04 3037.13 2498 3043.09C2292.18 3057.19 2084.38 3050 1878 3050C1793.84 3050 1709.84 3047.84 1626 3042.09C1583.29 3039.16 1534.65 3038.85 1495 3020.69C1448.21 2999.27 1412.69 2955.69 1377 2920"/>
</svg>
