<?xml version="1.0" standalone="yes"?>
<svg width="4000" height="4500">
<path style="stroke:none;fill:none;" d="M972 515C1010.35 515 1048.78 518.292 1087 520.911C1194.78 528.296 1303.24 543.818 1395 605C1418.88 620.923 1440.97 639.424 1462 658.911C1469.64 665.989 1479.79 673.115 1485.4 682C1490.51 690.105 1487 708.572 1487 718L1487 809L1487 1149L1487 2425L1487 2787C1487 2817.9 1488.31 2849.13 1486.96 2880C1486.5 2890.47 1481.76 2910.74 1487.6 2920C1492.55 2927.84 1501.4 2933.65 1508 2940.01C1526.62 2957.96 1546.94 2974.7 1568 2989.71C1670.05 3062.46 1790.72 3074.6 1912 3082.91C1946.6 3085.28 1981.44 3084.27 2016 3087M1486 682C1527.13 640.872 1567.87 587 1624 566.228C1664.86 551.106 1710.17 553 1753 553L1930 553C2142.32 553 2354.77 553.659 2567 554C2659.22 554.148 2752.84 558.849 2844 573.92C2866.18 577.586 2888.03 582.292 2910 587C2918.41 588.802 2933.02 590.053 2939.78 595.564C2946.1 600.72 2947.99 614.556 2950.7 622C2959.54 646.354 2966.74 670.892 2973.13 696C2988.08 754.796 2999.35 815.628 3005.83 876C3008.88 904.372 3012.19 932.697 3015.71 961C3017.28 973.619 3016.8 986.639 3020 999M2757 1319C2751.27 1343.05 2753.18 1370.36 2750.83 1395C2744.94 1456.68 2739.64 1519.22 2726.79 1580C2719.1 1616.39 2709.86 1651.86 2697.66 1687C2693.89 1697.83 2689.46 1708.58 2684.69 1719C2682.71 1723.33 2678.61 1729.13 2678.63 1734C2678.66 1744.96 2690.05 1760.57 2693.95 1771C2704.49 1799.19 2713.17 1827.7 2720.12 1857C2735.05 1920.02 2741.95 1984.71 2748.17 2049C2751.46 2083.02 2756 2117.81 2756 2152M1488 1735L2677 1734M1486 2919C1441.5 2962.58 1390.99 3004.52 1334 3030.69C1219.79 3083.13 1094.02 3077.37 972 3087"/>
</svg>
