<?xml version="1.0" standalone="yes"?>
<svg width="4000" height="4500">
<path style="stroke:none;fill:none;" d="M2998 466C2997.18 485.003 2992.13 504.522 2987.89 523C2979.12 561.122 2967.2 600.608 2948.14 635C2938.34 652.672 2927.82 669.725 2914.58 685C2910.43 689.777 2899.13 697.169 2899.36 704C2899.8 717.09 2908.99 732.491 2912.84 745C2923.5 779.612 2933.68 814.32 2944.03 849C2967.07 926.199 2982.93 1006.2 2999.29 1085C3005.65 1115.65 3012.26 1146.23 3018.09 1177C3020.71 1190.77 3025.4 1204.97 3026 1219M2406 1745C2451.31 1745 2496.84 1747.82 2542 1750.91C2607.31 1755.38 2674.85 1760.35 2737 1783.05C2777.28 1797.77 2813.76 1819.45 2848 1845.13C2869.71 1861.41 2897.3 1880.19 2913.68 1902C2917.88 1907.59 2917 1916.38 2917 1923L2917 1969L2917 2151L2917 2504L2917 2638C2917 2659.34 2919.83 2682.89 2916.79 2704C2913.52 2726.76 2898.71 2752.14 2889.31 2773C2876.54 2801.32 2863.14 2829.21 2849.25 2857C2841.2 2873.1 2833.74 2890.81 2822.55 2905C2798.82 2935.09 2765.34 2956.38 2732 2974.31C2665.23 3010.21 2592.4 3034.26 2519 3052.37C2416.65 3077.63 2314.68 3087.92 2210 3095.09C2024.13 3107.82 1828.01 3084.82 1654 3014.55C1552 2973.36 1454.75 2921.7 1368 2853.49C1183.43 2708.36 1047.1 2503.28 983.593 2277C955.783 2177.92 939.059 2078.29 928.831 1976C924.063 1928.31 918.348 1879.93 917.71 1832C917.225 1795.61 922.327 1758.2 925.83 1722C933.237 1645.47 941.6 1569.61 955.69 1494C1011.24 1195.91 1158.78 898.06 1407 715.583C1575.51 591.704 1780.35 518.374 1989 504.089C2044.87 500.264 2101.21 502.091 2157 505.911C2221.39 510.319 2285.55 514.13 2349 527.661C2395.3 537.537 2442.24 548.805 2487 564.344C2540 582.742 2591.33 605.227 2644 624.471C2687.04 640.194 2732.13 649.562 2776 662.72C2816.82 674.964 2856.94 690.795 2898 702M2916 1904C2955.55 1864.45 2996.87 1826.13 3047 1800.26C3111.24 1767.1 3183.05 1757.61 3254 1750.83C3287.1 1747.67 3320.73 1745 3354 1745"/>
</svg>
