<?xml version="1.0" standalone="yes"?>
<svg width="4000" height="4500">
<path style="stroke:none;fill:none;" d="M668 515C710.33 515 752.807 519.02 795 521.911C903.193 529.324 1014.24 544.041 1104 610.116C1124.06 624.885 1142.55 641.141 1161 657.83C1168.65 664.756 1180.96 673.1 1185.97 682.17C1190.73 690.786 1187 710.205 1187 720L1187 815L1187 1161L1187 2424L1187 2787C1187 2817.57 1188.3 2848.46 1186.96 2879C1186.49 2889.68 1181.65 2910.57 1187.6 2920C1192.31 2927.46 1200.66 2933.05 1207 2939.04C1223.21 2954.34 1240.17 2968.98 1258 2982.37C1351.12 3052.33 1463.35 3072.12 1577 3079.91C1604.63 3081.81 1632.34 3083.75 1660 3084.96C1674.44 3085.59 1689.77 3084.36 1704 3087M1187 681C1228.32 639.684 1274.01 599.914 1327 574.259C1397.56 540.096 1476.02 531.187 1553 523.83C1602.91 519.061 1653.85 515 1704 515M2288 515C2330.33 515 2372.81 519.02 2415 521.911C2523.93 529.375 2636.13 544.226 2726 611.626C2745.27 626.081 2763.16 641.686 2781 657.83C2788.66 664.756 2800.96 673.1 2805.97 682.17C2810.73 690.787 2807 710.205 2807 720L2807 815L2807 1161L2807 2424L2807 2787C2807 2817.57 2808.3 2848.46 2806.96 2879C2806.49 2889.68 2801.65 2910.57 2807.6 2920C2812.31 2927.46 2820.66 2933.05 2827 2939.04C2843.21 2954.34 2860.17 2968.98 2878 2982.37C2971.12 3052.33 3083.35 3072.12 3197 3079.91C3224.63 3081.81 3252.34 3083.75 3280 3084.96C3294.44 3085.59 3309.77 3084.36 3324 3087M2807 681C2848.32 639.684 2894.01 599.914 2947 574.259C3017.57 540.09 3096.01 531.188 3173 523.83C3222.91 519.061 3273.85 515 3324 515M1188 1777L2806 1777M1186 2919C1143.61 2961.04 1095.65 3000.91 1042 3027.73C926.045 3085.71 793.217 3077.12 668 3087M2806 2919C2763.61 2961.04 2715.65 3000.9 2662 3027.73C2546.03 3085.71 2413.23 3077.12 2288 3087"/>
</svg>
