<?xml version="1.0" standalone="yes"?>
<svg width="4000" height="4500">
<path style="stroke:none;fill:none;" d="M1441 515C1495.01 515 1549.17 518.222 1603 521.911C1711.48 529.344 1820.19 543.68 1911 608.579C1931.18 623 1949.44 639.347 1968 655.715C1976.46 663.176 1988.34 671.406 1994.4 681C1999.85 689.639 1996 709.921 1996 720L1996 819L1996 1190L1996 2455L1996 2794L1996 2885C1996 2894.21 1999.4 2912.07 1994.4 2920C1989.94 2927.05 1981.87 2932.17 1976 2938C1958.06 2955.83 1938.21 2972.19 1918 2987.37C1783.02 3088.77 1601.78 3083.68 1441 3087M1996 681C2040.99 636.941 2090.4 596.683 2148 570.309C2217.39 538.537 2296.6 528.102 2372 522.911C2432.55 518.742 2493.23 515 2554 515M1996 2920C2041.59 2961.99 2088.09 3002.56 2145 3028.69C2270.25 3086.2 2419.12 3084.22 2554 3087"/>
</svg>
