<?xml version="1.0" standalone="yes"?>
<svg width="4000" height="4500">
<path style="stroke:none;fill:none;" d="M1592 515C1640.34 515 1688.82 518.61 1737 521.911C1842.47 529.138 1949.69 542.226 2039 603.659C2062.15 619.584 2083.47 637.79 2104 656.911C2112.04 664.397 2124.52 672.67 2129.97 682.285C2131.94 685.759 2131 691.153 2131 695L2131 725L2131 836L2131 1242L2131 1921C2131 2112.3 2133.19 2302.73 2114.17 2493C2103.53 2599.38 2084.07 2705.79 2056.15 2809C2038.34 2874.84 2018.9 2941.91 1978.57 2998C1951.57 3035.54 1913.49 3066.19 1869 3079.97C1830.58 3091.88 1788.78 3093.32 1749 3097.17C1703.74 3101.55 1661.81 3105.95 1621 3081.85C1590.48 3063.83 1566.96 3036.91 1544.56 3010C1514.88 2974.33 1487.12 2937.12 1458 2901M2131 681C2174.57 637.427 2222.55 596.228 2279 570.309C2349.87 537.768 2430.02 528.21 2507 522.911C2559.18 519.318 2611.64 515 2664 515"/>
</svg>
