<?xml version="1.0" standalone="yes"?>
<svg width="4000" height="4500">
<path style="stroke:none;fill:none;" d="M728 515C777.16 515 827.085 518.156 876 522.83C954.745 530.355 1034.19 538.877 1107 572.309C1163.08 598.059 1210.71 638.714 1254 682C1297.9 638.102 1346.11 596.428 1403 570.309C1473.85 537.779 1554.04 528.209 1631 522.911C1683.18 519.318 1735.64 515 1788 515M2244 515C2333.71 515 2432.09 510.512 2518 540.344C2546.69 550.305 2568.76 567.76 2590 589L2611 610C2613.7 612.692 2616.81 616.925 2621 616.922C2627.4 616.918 2634.88 612.903 2641 611.141C2657.05 606.521 2673 601.52 2689 596.72C2736.6 582.44 2784.64 569.348 2833 557.884C2957.67 528.329 3088.12 515 3216 515M2619 618C2610.52 649.067 2597.49 679.647 2586.69 710C2575.14 742.451 2565.79 775.051 2548.33 805C2530.61 835.409 2507.18 863.296 2484.43 890C2444.46 936.91 2401.8 981.727 2358 1025C2250.6 1131.12 2141.08 1234.66 2032 1338.96C1984.83 1384.06 1937.75 1429.43 1890 1473.91C1872.55 1490.17 1855.08 1506.33 1838 1522.99C1830.68 1530.13 1821.47 1536.44 1815.7 1545C1803.71 1562.78 1799.3 1589.87 1791.95 1610C1780.78 1640.56 1770.22 1671.34 1759.31 1702C1754.19 1716.37 1747.15 1731.15 1743.72 1746C1740.99 1757.84 1757.69 1770.68 1765 1778C1789.42 1802.46 1814.35 1826.71 1837.91 1852C1938.15 1959.61 2044.71 2061.42 2144.91 2169C2305.57 2341.48 2468.84 2511.05 2611.63 2699C2631.57 2725.25 2651.81 2753.83 2665.42 2784C2673.17 2801.16 2677.93 2820.08 2683.66 2838C2689.83 2857.32 2696.43 2876.58 2702.28 2896C2704.34 2902.82 2705.92 2915.42 2711.42 2920.3C2715.7 2924.09 2723.66 2925.55 2729 2927.33C2740.7 2931.24 2752.3 2935.43 2764 2939.33C2805.03 2953.01 2845.96 2966.99 2887 2980.67C2995.53 3016.84 3105.9 3053.6 3219 3072.56C3281.27 3083.01 3344.97 3086.99 3408 3087M1254 683C1258.43 697.981 1255 718.366 1255 734L1255 842L1255 1196L1255 2356L1255 2769C1255 2804.89 1256.53 2841.15 1254.96 2877C1254.47 2888.09 1249.44 2910.23 1255.6 2920C1260.3 2927.44 1268.63 2933.16 1275 2939.09C1289.93 2952.97 1305.04 2966.48 1321 2979.2C1416.23 3055.08 1532.03 3072.83 1650 3080.91C1692.99 3083.85 1737.3 3081.6 1780 3087M1256 1836L1322 1836C1332.98 1836 1345.18 1837.48 1356 1835.54C1398.28 1827.93 1440.66 1811.21 1482 1799.42C1495.77 1795.5 1508.29 1796 1522 1793.54C1535.76 1791.06 1549.64 1785.13 1563 1780.97C1589.01 1772.89 1614.86 1764.23 1641 1756.58C1651.05 1753.63 1661.6 1748.45 1672 1747.18C1694.55 1744.45 1719.31 1748.53 1742 1749M1254 2919C1208.47 2962.57 1158.71 3004.2 1101 3030.69C983.745 3084.52 853.155 3077.12 728 3087M2710 2920L2623 3007C2607.13 3022.87 2591.8 3042.07 2572 3053.14C2543.52 3069.06 2509.9 3074.13 2478 3078.28C2406.87 3087.55 2335.26 3081.38 2264 3087"/>
</svg>
