<?xml version="1.0" standalone="yes"?>
<svg width="4000" height="4500">
<path style="stroke:none;fill:none;" d="M863 515C909.849 515 957.383 518.375 1004 522.83C1078.96 529.994 1155.71 538.495 1225 570.309C1282.7 596.8 1332.37 637.365 1377 682C1419.34 639.655 1466.5 600.522 1521 574.781C1591.23 541.608 1668.54 531.137 1745 523.83C1801.3 518.45 1858.41 515 1915 515M1377 682L1377 2320L1377 2758L1377 2875L1377 2906C1377 2910.48 1377.9 2916.04 1375.4 2920C1370.69 2927.46 1362.34 2933.05 1356 2939.04C1340.4 2953.77 1324.01 2967.57 1307 2980.65C1212.77 3053.14 1097.72 3072.98 982 3080.91C942.637 3083.61 902.089 3082.06 863 3087M3108 2468C3055.34 2604.51 3008.43 2743.74 2932.82 2870C2914.83 2900.04 2896.18 2929.35 2876.04 2958C2868.05 2969.36 2859.74 2985.87 2848.71 2994.44C2842.31 2999.4 2828.86 2999.88 2821 3001.25C2799.99 3004.91 2779.04 3008.89 2758 3012.41C2671.81 3026.87 2584.96 3034.13 2498 3040.09C2433.02 3044.54 2368.16 3044.42 2303 3046.01C2155.54 3049.63 2007.57 3047 1860 3047C1787.69 3047 1715.06 3047.02 1643 3042.09C1588.84 3038.38 1531.48 3034.47 1482 3009.73C1440.53 2989 1409.27 2952.27 1377 2920"/>
</svg>
