<?xml version="1.0" standalone="yes"?>
<svg width="4000" height="4500">
<path style="stroke:none;fill:none;" d="M316 515C367.693 515 419.484 518.381 471 521.911C576.015 529.106 683.236 543.847 772 605.025C803.386 626.657 838.904 652.983 862.721 683C869.051 690.977 864.396 707.357 871.589 713.787C878.335 719.817 889.074 723.022 897 727.309C916.177 737.68 935.501 747.998 955 757.753C964.042 762.277 978.6 766.974 985.502 774.39C997.326 787.096 1002.73 811.393 1010.26 827C1031.9 871.848 1051.58 917.722 1072.31 963C1140.49 1111.92 1208.12 1261.08 1276.31 1410C1411.5 1705.25 1545.83 2000.89 1681.31 2296C1724.44 2389.94 1767.18 2484.06 1810.31 2578C1820.26 2599.67 1828.26 2626.37 1841.81 2645.96C1846.93 2653.34 1862.28 2654.01 1864.68 2663.04C1867.72 2674.49 1865 2690.14 1865 2702C1865 2731.32 1864.53 2760.71 1865.06 2790C1866.9 2890.53 1866.21 2991.33 1866 3092M3636 3087C3596.91 3082.06 3556.36 3083.61 3517 3080.91C3401.28 3072.98 3286.23 3053.14 3192 2980.65C3174.99 2967.57 3158.6 2953.77 3143 2939.04C3136.66 2933.05 3128.31 2927.46 3123.6 2920C3120.97 2915.82 3122 2909.72 3122 2905C3122 2893.95 3121.78 2882.99 3122.83 2872C3125.57 2843.21 3123 2812.94 3123 2784L3123 2413L3123 1145L3123 806L3123 715C3123 705.789 3119.6 687.927 3124.6 680C3130.73 670.296 3142.46 662.245 3151 654.715C3170.64 637.402 3190.31 620.42 3212 605.656C3297.07 547.741 3394.77 532.409 3495 522.83C3541.61 518.376 3589.16 515 3636 515M1865 2660C1910.2 2633.62 1957.96 2611.21 2004 2586.31C2015.93 2579.85 2028.06 2573.76 2040 2567.31C2045.31 2564.44 2052.33 2562.34 2056.36 2557.67C2065.98 2546.54 2070.91 2526.46 2076.86 2513C2091.01 2481 2104.93 2448.9 2119.31 2417C2170.08 2304.36 2217.87 2190.34 2269.31 2078C2341.96 1919.33 2409.91 1758.44 2480.86 1599C2564 1412.19 2648.27 1225.74 2729.28 1038C2756.71 974.439 2785.15 911.312 2813.14 848C2821.41 829.304 2829.87 810.697 2838.14 792C2841.78 783.771 2844.87 771.704 2851.22 765.213C2859.86 756.401 2875.23 751.515 2886 745.691C2911.57 731.86 2937.67 718.852 2963 704.576C2982.07 693.824 3001.74 684.107 3021 673.691C3037.23 664.912 3051.2 655 3070 655C3077.37 655 3088.05 653.041 3095 655.604C3105.22 659.373 3115.36 674.356 3123 682M870 714L783 801L759 825C755.245 828.755 749.49 832.884 747.603 838C743.628 848.782 747 866.511 747 878L747 970L747 1281L747 2481L747 2864C747 2897.01 748 2930.02 748 2963C748 2971.56 751.703 2991.74 746.397 2998.67C740.857 3005.91 727.008 3010.24 719 3014.25C694.291 3026.6 668.401 3036.91 642 3045.02C566.489 3068.25 487.426 3076.54 409 3081.91C375.574 3084.2 341.202 3082.8 308 3087M3122 2919C3078.21 2959.34 3032.28 2999.88 2978 3025.68C2856.42 3083.47 2722.48 3076.7 2592 3087M749 3000C789.642 3017.51 826.98 3038.29 870 3050.57C968.381 3078.65 1070.64 3082.65 1172 3087"/>
</svg>
