<?xml version="1.0" standalone="yes"?>
<svg width="4000" height="4500">
<path style="stroke:none;fill:none;" d="M640 515C701.069 515 761.672 516.769 822 527.25C887.968 538.71 951.629 559.543 1015 580.667C1043.87 590.291 1072.34 601.074 1101 611.308C1111.15 614.931 1129.79 618.013 1137.57 625.51C1144.28 631.974 1145.9 650.151 1148.42 659L1172.58 744C1175.07 752.726 1176.61 770.566 1182.85 777.182C1188.62 783.301 1203.23 785.801 1211 788.811L1281 815.811C1290.6 819.528 1304.53 822.413 1311.71 830.055C1348.24 868.946 1379.58 914.393 1413 956C1486.68 1047.72 1559.32 1140.27 1633 1232C1856.7 1510.5 2079.05 1790.07 2302.2 2069C2387.05 2175.06 2472.6 2280.57 2557 2387C2585.83 2423.36 2614.61 2459.76 2643.6 2496C2657.26 2513.08 2670.03 2532.23 2685.29 2547.89C2692.28 2555.07 2705.81 2557.63 2715 2561.19C2737.96 2570.08 2761.11 2578.53 2784 2587.6C2792.26 2590.88 2809.8 2593.9 2815.15 2601.22C2823.35 2612.46 2825.44 2634.6 2829.29 2648C2839.73 2684.32 2850.06 2720.66 2860.42 2757C2895.64 2880.54 2927.88 3005.65 2967 3128M2480 515C2524.04 515 2568.11 518.889 2612 521.911C2671.52 526.009 2733.54 532.671 2791 549.721C2821.11 558.656 2849.67 570.857 2878 584.32C2890.91 590.455 2903.33 600.979 2917 605C2913.18 621.047 2916 640.523 2916 657C2916 688.675 2915 720.32 2915 752L2915 1055L2915 2018L2915 2355L2915 2455C2915 2467.31 2918.65 2486.45 2914.4 2498C2910.39 2508.87 2894.13 2519.87 2886 2528L2815 2599M2918 604C2955.09 586.681 2989.58 567.274 3029 555.025C3093.45 534.996 3161.97 526.607 3229 521.911C3267.2 519.234 3305.67 515 3344 515M1182 778L1109 851C1100.62 859.379 1083.73 870.804 1079.6 882C1075.82 892.272 1079 909.06 1079 920L1079 1005L1079 1296L1079 2478C1079 2608.26 1078.58 2737.86 1079 2868C1079.1 2900.34 1080 2932.66 1080 2965C1080 2973.16 1083.63 2993.36 1077.68 2999.47C1070.71 3006.64 1057.86 3010.82 1049 3015.25C1024.94 3027.28 999.694 3037.12 974 3045.02C898.483 3068.24 819.432 3076.54 741 3081.91C707.574 3084.2 673.202 3082.8 640 3087M1081 3000C1095.72 3006.16 1109.46 3015.01 1124 3021.69C1153.26 3035.13 1183.86 3045.93 1215 3054.12C1310.48 3079.22 1406.63 3079.31 1504 3087"/>
</svg>
