<?xml version="1.0" standalone="yes"?>
<svg width="4000" height="4500">
<path style="stroke:none;fill:none;" d="M1964 494.424C1987.88 491.287 2014.04 493.912 2038 494.961C2092.35 497.339 2145.34 501.334 2199 511.389C2359.82 541.52 2511.92 613.142 2638 717.321C2770.85 827.101 2872.93 979.406 2938.31 1138C3007.19 1305.12 3042.82 1479.7 3060.17 1659C3064.99 1708.78 3071.92 1759.99 3071.92 1810C3071.92 1857.69 3064.76 1906.53 3060.17 1954C3044.37 2117.21 3009.74 2277.16 2949.2 2430C2907.73 2534.71 2856.58 2639.36 2787.76 2729C2638.14 2923.89 2410.39 3061.79 2166 3094.72C2049.84 3110.37 1927.78 3115.08 1812 3093.39C1724.68 3077.03 1637.76 3051.63 1558 3012.03C1484.5 2975.54 1415.02 2932.6 1352 2879.81C1280.75 2820.11 1220.45 2747.15 1169.12 2670C1036.37 2470.48 966.518 2229.89 942.831 1993C936.306 1927.74 925.224 1860.62 926.004 1795C926.783 1729.45 935.717 1662.09 943.715 1597C955.733 1499.2 974.056 1402.65 1001.96 1308C1061.38 1106.51 1158.82 905.168 1312 758.039C1434.3 640.57 1592.33 555.015 1758 518.424C1804.55 508.144 1851.62 501.679 1899 497.17C1920.5 495.124 1942.61 497.234 1964 494.424"/>
</svg>
