<?xml version="1.0" standalone="yes"?>
<svg width="4000" height="4500">
<path style="stroke:none;fill:none;" d="M988 515C1030.66 515 1073.48 519.931 1116 522.911C1219.68 530.176 1324.84 547.358 1410 611.126C1429.35 625.619 1446.91 641.76 1465 657.715C1472.48 664.315 1485.35 673.196 1489.97 682.039C1492 685.921 1491 691.755 1491 696L1491 728L1491 842L1491 1256L1491 2474L1491 2800C1491 2829 1491.05 2858 1491 2887C1490.99 2896.23 1486.39 2911.75 1491.6 2920C1498.16 2930.39 1510.83 2939.24 1520 2947.28C1538.34 2963.37 1556.92 2979.12 1577 2993.02C1708.67 3084.21 1878.12 3083.83 2032 3087M1491 681C1532.46 639.536 1572.61 587.708 1629 566.425C1670.26 550.854 1715.58 551 1759 551L1901 551C1942.65 551 1984.49 550.248 2026 553.089C2272.32 569.953 2553.94 627.184 2706.33 842C2760.1 917.79 2786.39 1006 2804.4 1096C2811.15 1129.73 2820.76 1166.54 2821.54 1201C2821.88 1215.63 2817.66 1231.56 2815.42 1246C2811.17 1273.41 2806.64 1300.8 2801.2 1328C2777.21 1447.96 2740.58 1560.41 2659.57 1655C2579.98 1747.93 2466.66 1811.13 2350 1844.57C2162.58 1898.3 1968.6 1894.47 1776 1886.04C1681.41 1881.9 1586.83 1881 1492 1881M1490 2919C1438.67 2970.33 1379.92 3018.68 1311 3043.95C1237.71 3070.82 1158.13 3076.63 1081 3081.91C1050.66 3083.99 1017.86 3081.46 988 3087"/>
</svg>
