<?xml version="1.0" standalone="yes"?>
<svg width="4000" height="4500">
<path style="stroke:none;fill:none;" d="M2064 3229C2027.44 3220.54 1991.2 3204.93 1956 3192.05C1893.42 3169.16 1831.34 3146.53 1772 3115.97C1740.93 3099.98 1712.75 3079.04 1682 3062.74C1672.66 3057.79 1661.79 3055.38 1652 3051.4C1624.6 3040.24 1596.91 3030.01 1570 3017.69C1487.89 2980.1 1409.58 2932.83 1341 2873.83C1268.12 2811.14 1208.52 2733.09 1157.63 2652C1036.97 2459.7 966.914 2233.92 942.834 2009C935.482 1940.33 925.182 1870.12 926.004 1801C926.794 1734.53 936.753 1667.1 943.834 1601C963.922 1413.48 1014.9 1228 1099.4 1059C1153.14 951.507 1220.39 849.715 1305.8 764.665C1397.05 673.799 1510.79 604.742 1630 557.45C1727.25 518.867 1830.44 503.001 1934 495.911C2038.1 488.784 2145.49 496.325 2247 521.374C2424.75 565.238 2589.29 659.652 2715.58 792.17C2841.59 924.397 2926.29 1091.73 2982.74 1264C3022.81 1386.27 3045.4 1513.23 3058.17 1641C3061.93 1678.65 3065.49 1716.27 3068.09 1754C3069.23 1770.5 3071.92 1787.44 3071.54 1804C3070.61 1844.94 3066.11 1886.24 3062.17 1927C3051.49 2037.38 3035.17 2145.65 3006.73 2253C2959.06 2433 2879.89 2609.45 2765.33 2757C2658.63 2894.43 2515.47 2993.5 2351 3049C2316.64 3060.59 2281.37 3070.36 2246 3078.35C2231.2 3081.69 2209.21 3081.48 2196.04 3088.99C2186.95 3094.17 2179.33 3108.85 2172.8 3117C2158.23 3135.18 2142.47 3152.53 2126 3169L2083 3212C2078.51 3216.49 2068.08 3223.56 2066.78 3230C2065.68 3235.42 2070.9 3243.94 2072.66 3249C2078.23 3265.07 2084.01 3281.06 2089.95 3297C2101.27 3327.37 2130.36 3349.63 2154 3371.17C2203.86 3416.58 2255.03 3460.37 2310 3499.55C2512.94 3644.18 2743.65 3735.59 2989 3775.68C3099.36 3793.71 3210.54 3797 3322 3797"/>
</svg>
