<?xml version="1.0" standalone="yes"?>
<svg width="4000" height="4500">
<path style="stroke:none;fill:none;" d="M769 515C811.142 515 854.063 518.823 896 522.83C1004.22 533.172 1109.43 546.94 1199 614.126C1218.6 628.826 1237.53 644.822 1255 661.997C1261.23 668.123 1269.68 673.533 1274.4 681C1279.51 689.105 1276 707.572 1276 717L1276 808L1276 1149L1276 2426L1276 2787L1276 2884C1276 2892.91 1271.94 2912.65 1276.6 2920C1282.14 2928.74 1293.34 2936.24 1301 2943.17C1319.03 2959.48 1337.17 2975.57 1357 2989.71C1381.53 3007.2 1407.24 3022.73 1435 3034.57C1551.11 3084.12 1679.16 3077.3 1802 3087M1276 681C1309.57 647.432 1342.19 606.358 1385 584.259C1435.48 558.203 1492.36 554.396 1548 551.961C1616.1 548.98 1684.78 551 1753 551C1795.03 551 1837.12 551.222 1879 554.089C2122.94 570.79 2405.88 633.758 2536.34 864C2585.82 951.31 2603.78 1058.6 2616.72 1157C2619.5 1178.15 2615.55 1198.03 2612.08 1219C2607.48 1246.78 2602.5 1274.5 2596.42 1302C2584.89 1354.2 2571.15 1404.73 2547.64 1453C2496.34 1558.32 2405.51 1643.72 2300 1693.22C2248.42 1717.42 2193.77 1737.92 2139 1753.57C2122.1 1758.4 2105.14 1764.14 2088 1767.99C2078.89 1770.03 2063.73 1770.93 2056.19 1776.59C2050.21 1781.06 2046.13 1790.83 2042 1797C2032.92 1810.55 2023.41 1823.95 2013.63 1837C2004.81 1848.75 1995.84 1860.36 1986.88 1872C1983.32 1876.62 1976.84 1882.23 1975.4 1888C1973.1 1897.23 1981.68 1914.91 1984.29 1924C1989.26 1941.32 1991.96 1961.76 1999.76 1978C2006.81 1992.68 2021 2006.36 2031.2 2019C2103.91 2109.09 2174.42 2200.96 2247.2 2291C2372.56 2446.09 2497.32 2602.28 2619.35 2760C2659.99 2812.52 2701.55 2864.43 2743.39 2916C2755.87 2931.39 2767.39 2947.56 2779.8 2963C2784.95 2969.4 2790.31 2978.49 2797.09 2983.18C2806.64 2989.8 2821.09 2992.81 2832 2996.69C2856.31 3005.34 2880.51 3014.17 2905 3022.33C2976.96 3046.32 3050.68 3065.81 3126 3075.72C3171.22 3081.66 3216.99 3081.31 3262 3087M1277 1827C1384.63 1827 1492.57 1827.66 1600 1822.96C1642.92 1821.08 1686 1820.07 1729 1820C1744.32 1819.98 1761.88 1816.06 1777 1818.42C1797.17 1821.57 1818.79 1833.58 1838 1840.56C1882.69 1856.8 1928.03 1875.81 1974 1888M1275 2919C1226.91 2967.09 1171.92 3010.73 1109 3037.57C1033.94 3069.6 949.421 3076.4 869 3081.91C835.876 3084.18 801.918 3082.84 769 3087"/>
</svg>
