<?xml version="1.0" standalone="yes"?>
<svg width="4000" height="4500">
<path style="stroke:none;fill:none;" d="M2632 464C2632 514.31 2626.43 573.614 2605.69 620C2598.03 637.13 2589.85 654.102 2576.91 668C2572.54 672.698 2559.89 681.043 2560.11 688C2560.55 701.958 2572.89 720.901 2577.94 734C2591.71 769.715 2604.59 805.705 2616.71 842C2645.94 929.494 2668.48 1020.38 2685.46 1111C2692.48 1148.44 2705.37 1187.92 2707 1226M1106 2369C1121.76 2417.45 1132.97 2467.9 1146.74 2517C1170.59 2601.96 1198.65 2685.64 1227.5 2769C1239.72 2804.34 1253.43 2839.2 1267.1 2874C1271.54 2885.3 1275.96 2906.8 1284.76 2915.18C1289.91 2920.08 1301.34 2922.09 1308 2924.33C1325.35 2930.17 1342.63 2936.21 1360 2942C1392.7 2952.9 1426.23 2961.14 1459 2971.75C1488.92 2981.43 1517.84 2994.22 1547 3005.92C1610.09 3031.23 1671.77 3058.55 1738 3075.1C1799.45 3090.46 1861.99 3097.77 1925 3102.09C1970.13 3105.18 2015.73 3109.01 2061 3105.91C2218.58 3095.12 2377.46 3029.48 2482.28 2909C2518.27 2867.63 2548.76 2819.65 2567.71 2768C2589.37 2709.02 2601.9 2646.49 2614.2 2585C2622.57 2543.16 2633.11 2498.71 2634.96 2456C2636.17 2428.08 2627.6 2396.12 2621.5 2369C2610.91 2321.96 2595.25 2276.64 2572.6 2234C2555.68 2202.15 2533.05 2173.63 2510.08 2146C2472.07 2100.29 2429.24 2057.84 2384 2019.27C2241.42 1897.69 2080.25 1803.41 1917 1712.86C1811.28 1654.22 1707.88 1592.24 1613 1517C1542.31 1460.95 1475.79 1397.27 1426.69 1321C1386.4 1258.41 1352.99 1179.57 1351.13 1104C1350.71 1086.99 1354.82 1068.89 1356.84 1052C1361.54 1012.82 1367.86 973.699 1375.6 935C1384.32 891.398 1392.15 845.938 1407.22 804C1438.53 716.86 1499.7 645.919 1576 594.519C1657.4 539.682 1758.33 509.313 1856 505.039C1906.34 502.836 1958.93 510.164 2009 515.169C2079.48 522.216 2148.8 540.456 2215 565.425C2260.95 582.756 2305.15 604.19 2351 621.775C2387.7 635.85 2426.39 644.394 2464 655.72C2487.79 662.885 2511.17 671.418 2535 678.424C2543.04 680.787 2550.67 684.769 2559 686M1284 2916C1274.75 2925.25 1263.87 2934.15 1256.46 2945C1231.3 2981.85 1223.5 3031.49 1219.84 3075C1218.37 3092.48 1214.9 3113.78 1219 3131"/>
</svg>
