<?xml version="1.0" standalone="yes"?>
<svg width="4000" height="4500">
<path style="stroke:none;fill:none;" d="M895 1110C895.699 1076.12 903.83 1041.63 907.83 1008C918.858 915.296 934.345 822.594 957.105 732C964.854 701.155 974.492 671.113 984.666 641C987.634 632.213 991.42 612.903 998.51 606.854C1002.66 603.318 1010.86 602.748 1016 601.29C1031.79 596.808 1047.93 593.33 1064 590.003C1125.41 577.29 1187.62 571.181 1250 566.911C1396.38 556.889 1544.11 561 1691 561L1820 561L1857 561C1862.43 561 1869.85 559.705 1875 561.604C1887.18 566.096 1899.86 584.863 1909 594L1967 652C1976 661.002 1988.6 670.227 1995.4 681C2000.85 689.639 1997 709.921 1997 720L1997 819L1997 1191L1997 2456L1997 2794L1997 2885C1997 2894.21 1993.6 2912.07 1998.6 2920C2004.21 2928.88 2014.36 2936.01 2022 2943.09C2040.66 2960.38 2060.3 2976.63 2081 2991.42C2215.03 3087.2 2390.13 3080.26 2547 3087M1997 681L2082 596L2106 572C2109.48 568.515 2113.25 563.356 2118 561.604C2123.41 559.609 2131.29 561 2137 561L2177 561L2314 561C2472.87 561 2631.75 558.315 2790 569.911C2841.07 573.654 2891.79 581.494 2942 591.6C2954.75 594.167 2967.41 597.391 2980 600.63C2984.94 601.9 2992.68 602.704 2996.39 606.43C3004.64 614.719 3008.66 634.035 3012.33 645C3022.61 675.725 3032.4 706.455 3039.88 738C3059.6 821.052 3071.88 904.694 3084.3 989C3088.17 1015.25 3091.22 1041.64 3094.17 1068C3095.69 1081.52 3098.96 1095.36 3099 1109M1997 2919C1977.7 2934.71 1960.3 2952.76 1941 2968.58C1910.07 2993.92 1876.4 3016.02 1840 3032.69C1719.86 3087.7 1583 3076.9 1455 3087"/>
</svg>
