<?xml version="1.0" standalone="yes"?>
<svg width="4000" height="4500">
<path style="stroke:none;fill:none;" d="M648 515C694.684 515 741.473 518.722 788 521.911C895.205 529.257 1004.58 544.314 1093 610.626C1112.64 625.356 1130.82 641.383 1149 657.83C1156.65 664.756 1168.96 673.1 1173.97 682.17C1179.06 691.379 1175 712.51 1175 723L1175 828L1175 1211L1175 1600C1175 1798.69 1168.35 1998.98 1181.91 2197C1188.1 2287.41 1194.05 2378.67 1210.69 2468C1225.46 2547.28 1244.68 2624.86 1277.28 2699C1326.23 2810.3 1407.76 2907.06 1511 2971.54C1570.42 3008.64 1635.07 3034.34 1702 3054.28C1788.33 3080 1882.32 3090.22 1972 3091.95C2004.18 3092.57 2036.86 3089.45 2069 3088.04C2157.49 3084.16 2244.55 3075.63 2331 3055.12C2396.68 3039.53 2463.35 3016.2 2523 2984.51C2582.03 2953.15 2638.51 2916.32 2687 2869.96C2721.34 2837.12 2752.35 2800.86 2778.3 2761C2830.4 2681 2862.5 2585.43 2879.46 2492C2906.99 2340.43 2908.18 2188.66 2910 2035C2912.56 1819.46 2911 1603.63 2911 1388C2911 1198.31 2910 1008.53 2910 819C2910 767.291 2909.02 715.754 2909 664C2908.99 649.996 2908.5 636.017 2908.5 622C2908.5 616.59 2909.97 607.92 2907.1 603.105C2903.12 596.428 2889.76 592.126 2883 588.753C2859.51 577.04 2834.92 567.225 2810 559.001C2740.58 536.087 2666.66 525.913 2594 520.911C2557.38 518.39 2520.75 515 2484 515M1175 681C1217.56 638.437 1264.83 597.637 1320 572.309C1394.27 538.213 1478.34 528.464 1559 522.911C1607.18 519.594 1655.66 515 1704 515M2908 603C2941.8 578.443 2987.18 564.644 3027 553.576C3093.43 535.112 3163.41 526.717 3232 521.911C3266.55 519.49 3301.34 515 3336 515"/>
</svg>
