<?xml version="1.0" standalone="yes"?>
<svg width="4000" height="4500">
<path style="stroke:none;fill:none;" d="M656 515C721.657 515 787.925 520.695 852 535.884C923.125 552.745 990.46 581.506 1057 611.139C1086.65 624.344 1115.52 639.154 1145 652.691C1156.82 658.117 1176.64 663.819 1185.57 673.39C1191.86 680.134 1192.02 698.107 1193.8 707C1199.66 736.322 1205.34 765.679 1211.2 795C1216.11 819.531 1218.84 844.906 1225.59 869C1242.55 929.498 1269.16 987.164 1293.42 1045C1343.22 1163.67 1397.78 1280.44 1450.14 1398C1542.53 1605.46 1635.75 1812.55 1728.14 2020C1800.58 2182.66 1870.29 2347.19 1946.74 2508C1959.27 2534.34 1970.94 2561.26 1982.58 2588C1987.88 2600.19 1992.94 2620.16 2002.39 2629.61C2006.21 2633.43 2012.34 2635.36 2017 2638C2024.53 2642.27 2038.33 2652.75 2047 2652.86C2056.03 2652.98 2069.22 2641.58 2077 2637.31C2102.74 2623.17 2128.51 2609 2154 2594.42C2170.25 2585.13 2186.75 2576.29 2203 2567C2209.81 2563.11 2219.39 2559.83 2224.58 2553.81C2233.25 2543.78 2237.07 2524.33 2242 2512C2254.79 2480.02 2267.41 2447.98 2280.2 2416C2322.97 2309.07 2365.23 2201.93 2408 2095C2491.53 1886.15 2573.91 1676.84 2657.45 1468C2719.36 1313.23 2782.32 1158.78 2841.58 1003C2875.42 914.025 2899.09 823.812 2914.75 730C2919.89 699.238 2926.08 668.582 2932.2 638C2934.04 628.812 2934.24 609.559 2940.59 602.499C2945.68 596.844 2957.17 593.827 2964 590.691C2983.81 581.594 3003.7 572.773 3024 564.797C3113.54 529.616 3208.1 515 3304 515M1187 673L1256 604C1271.13 588.869 1285.45 572.514 1304 561.453C1345.82 536.519 1397.31 528.599 1445 523.831C1510.71 517.261 1577.95 515 1644 515M2560 515C2626.98 515 2694.62 519.621 2761 528.87C2825.77 537.893 2891.24 554.636 2939 602M2048 2656L2048.99 2718L2050.96 2825L2056 3137"/>
</svg>
