<?xml version="1.0" standalone="yes"?>
<svg width="4000" height="4500">
<path style="stroke:none;fill:none;" d="M171 515C304.177 515 432.426 552.739 552 609.219C577.578 621.301 602.702 634.104 628 646.753C638.3 651.903 654.66 657.125 662.686 665.39C668.14 671.006 667.989 685.516 669.389 693C673.928 717.267 678.046 741.644 682.08 766C695.314 845.897 713.197 921.835 741.053 998C813.721 1196.69 889.066 1394.39 961.947 1593C1004.93 1710.13 1047.25 1827.6 1092.19 1944C1152.24 2099.52 1207.1 2257.1 1266.19 2413C1276.26 2439.56 1285.47 2466.44 1295.58 2493C1300.04 2504.73 1303.24 2519.36 1310.07 2529.91C1315.3 2537.97 1329.81 2543.15 1338 2547.85C1340.91 2549.52 1344.48 2552.59 1348 2552.48C1352.02 2552.36 1356.62 2548.54 1360 2546.58L1386 2531.42C1416.97 2513.45 1448.19 2495.86 1479 2477.6C1494.23 2468.58 1509.73 2459.98 1525 2451.01C1530.99 2447.49 1539.96 2444.36 1544.3 2438.79C1553.92 2426.44 1557.83 2403.7 1563.42 2389C1578.09 2350.45 1591.76 2311.55 1606.42 2273C1658.65 2135.72 1708.74 1997.62 1760.05 1860C1798.31 1757.36 1836.21 1654.59 1874.58 1552L1910.58 1456C1915.72 1442.24 1919.08 1425.76 1926.42 1413.04C1929.63 1407.48 1936.64 1404.77 1942 1401.72L1974 1383.58C1988 1375.65 2004.36 1368.56 2017 1358.61C2031.11 1347.5 2043.3 1332.7 2056 1320C2063.31 1312.69 2081.51 1300.32 2083.64 1290C2085.17 1282.61 2081.3 1271.44 2080.08 1264C2076.85 1244.33 2073.71 1224.66 2070.41 1205C2064.12 1167.5 2061.95 1126.47 2051.22 1090C2039 1048.53 2017.92 1008.67 2003.05 968C1991.62 936.707 1979.34 905.379 1971.34 873C1963.24 840.191 1959 806.324 1953.41 773C1949.27 748.312 1945.21 723.605 1940.61 699C1938.95 690.099 1939.23 676.195 1934.57 668.39C1929.73 660.301 1910.33 653.931 1902 649.753C1873.26 635.348 1845.08 619.953 1816 606.219C1754.63 577.23 1693.36 549.611 1627 533.884C1553.86 516.55 1477.75 515 1403 515M664 666L727 603C745.389 584.611 762.971 566.074 786 553.436C820.479 534.513 863.464 528.959 902 524.834C959.334 518.696 1017.32 515 1075 515M1935 667L1994 608C2011.25 590.746 2027.47 573.803 2049 561.861C2088.42 539.997 2135.9 532.518 2180 526.718C2251.24 517.35 2323.2 515 2395 515M3087 515C3163.88 515 3244.81 522.968 3320 539.576C3363.78 549.244 3409.93 564.347 3443 596C3467.95 578.252 3503.17 568.609 3532 559C3592.44 538.853 3655.86 529.594 3719 522.834C3746.67 519.872 3775.17 515.019 3803 515M3443 597C3437.43 613.463 3435.66 631.917 3432.58 649C3425.62 687.556 3419.44 726.242 3413.73 765C3403.01 837.773 3387.82 908.707 3365.97 979C3338.83 1066.34 3306.35 1151.85 3275.69 1238C3242.09 1332.43 3208.45 1426.85 3174.05 1521C3097.37 1730.87 3025.82 1942.7 2947.58 2152C2920.29 2224.99 2895.72 2299.01 2868.42 2372C2860.98 2391.91 2854.34 2412.12 2846.81 2432C2843.96 2439.53 2842.56 2449.51 2837.5 2455.91C2831.53 2463.46 2819.21 2468.17 2811 2472.99C2791.34 2484.54 2771.61 2495.98 2752 2507.6C2729.71 2520.82 2707.34 2533.89 2685 2547.01C2677.79 2551.25 2665.43 2562.22 2657 2562.48C2652.4 2562.63 2646.85 2557.91 2643 2555.72C2632.37 2549.68 2621.3 2544.13 2611 2537.54C2603.16 2532.51 2601.32 2522.23 2598.19 2514C2590.84 2494.68 2583.76 2475.24 2576.2 2456C2546.06 2379.27 2516.89 2302.06 2487.58 2225C2408.64 2017.49 2328.36 1810.5 2249.42 1603C2225.6 1540.36 2201.53 1477.77 2178.05 1415C2170.54 1394.92 2162.56 1375 2154.81 1355C2151.42 1346.26 2148.96 1333.73 2143.18 1326.33C2139.28 1321.34 2131.4 1318.64 2126 1315.58C2112.29 1307.81 2096.16 1301 2084 1291M1348 2554L1347 3137M2657 2564L2663 3137"/>
</svg>
