<?xml version="1.0" standalone="yes"?>
<svg width="4000" height="4500">
<path style="stroke:none;fill:none;" d="M680 515C827.85 515 971.118 542.34 1111 590.003C1165.05 608.419 1218.63 628.123 1272 648.424C1295.76 657.46 1322.01 672.698 1347 677C1349.24 702.654 1361.11 730.105 1367.85 755C1377.1 789.166 1383.87 825.328 1397.62 858C1426.68 927.034 1469.96 990.325 1510.31 1053C1601.99 1195.42 1697.39 1336.03 1795.71 1474C1824.49 1514.4 1852.06 1555.63 1880.86 1596C1892.08 1611.74 1902.24 1630.77 1915.52 1644.78C1920.6 1650.13 1930.33 1652.4 1937 1655.28C1950.23 1660.99 1959.66 1665.66 1970 1676C1973.92 1679.92 1979.95 1684.19 1980.85 1690C1984.5 1713.46 1981 1740.24 1981 1764C1981 1772.05 1983.61 1785.72 1979.97 1793C1973.89 1805.17 1957.61 1816.39 1948 1826C1925.59 1848.41 1903.63 1876.9 1878 1895.5C1867.92 1902.82 1852.71 1902.44 1843.17 1910.42C1834.17 1917.95 1826.93 1929.84 1819.6 1939L1775.4 1994C1665.11 2131.87 1553.74 2268.98 1442.39 2406C1362.88 2503.84 1283.49 2601.64 1208.52 2703C1185.53 2734.09 1161.51 2766.71 1145.31 2802C1128.68 2838.23 1119.77 2879.77 1108.58 2918C1103.58 2935.05 1098.25 2952.04 1092.97 2969C1091.35 2974.21 1086.08 2983.69 1088.79 2989C1092.79 2996.82 1102.81 3003.81 1109 3010C1134.91 3035.91 1164.61 3050.52 1200 3059.37C1270.26 3076.94 1343.23 3078.99 1415 3083.91C1439.21 3085.57 1463.92 3083.96 1488 3087M1347 677L1423 601C1439.3 584.704 1454.77 566.439 1475 554.873C1516.06 531.394 1564.75 525.307 1611 520.83C1677.44 514.4 1745.21 515 1812 515M2424 515C2474.8 515 2525.4 517.427 2576 520.911C2617.1 523.74 2659.44 527.731 2699 540.025C2723.3 547.577 2744.71 558.76 2764 575.425C2771.04 581.51 2777.42 588.424 2784 595C2786.7 597.697 2789.93 602.164 2794 602.637C2798.83 603.198 2805.47 599.51 2810 598C2821.63 594.125 2833.27 590.255 2845 586.72C2886.11 574.335 2927.3 562.663 2969 552.374C3076.35 525.885 3189.74 515 3300 515M2793 605C2766.26 665.319 2760.26 734.769 2728.69 793C2701.61 842.95 2665.32 888.215 2630.65 933C2579.39 999.226 2526.51 1064.23 2473.42 1129C2389.15 1231.83 2306.71 1336.17 2222.42 1439C2187.82 1481.22 2155.74 1527.07 2118.41 1566.9C2109.32 1576.59 2093.08 1575.71 2083 1584.21C2046.72 1614.83 2014.58 1652.42 1981 1686M1981 1794C1988.27 1801.27 1995.72 1811.43 2005 1816.1C2017.25 1822.25 2037.12 1825.12 2046.67 1835.13C2054.46 1843.3 2060.41 1854.62 2066.67 1864C2077.89 1880.83 2089.51 1897.37 2101.02 1914C2141.63 1972.64 2181.82 2031.57 2222.72 2090C2346.64 2267.04 2472.05 2444.42 2585.93 2628C2609.71 2666.33 2634.14 2706.66 2650.19 2749C2658.47 2770.86 2662.75 2794.46 2668.85 2817C2675.5 2841.58 2681.41 2866.37 2687.88 2891C2689.82 2898.38 2690.94 2913.96 2696.51 2919.3C2705.35 2927.77 2724.73 2931.69 2736 2936.42C2768.42 2950.03 2801.36 2962.34 2834 2975.4C2932.47 3014.79 3034.16 3050.25 3139 3067.92C3182.62 3075.27 3226.94 3079.89 3271 3082.91C3290.59 3084.25 3312.94 3082.46 3332 3087M2695 2919L2619 2995C2600.88 3013.12 2583.8 3032.34 2561 3044.69C2530.78 3061.06 2494.71 3068.41 2461 3073.27C2406.13 3081.18 2351.2 3081.54 2296 3083.96C2270.81 3085.06 2245.02 3083.84 2220 3087M632 3087C653.118 3084.33 674.763 3085.37 696 3083.91C745.019 3080.55 793.961 3075.37 842 3064.35C898.657 3051.35 953.896 3033.7 1009 3015.33C1034.39 3006.87 1059.96 2995.02 1086 2989"/>
</svg>
