<?xml version="1.0" standalone="yes"?>
<svg width="4000" height="4500">
<path style="stroke:none;fill:none;" d="M680 515C835.207 515 978.235 565.351 1122 618.95C1158.5 632.559 1194.83 646.731 1231 661.2C1243.45 666.179 1265.82 670.448 1275.49 679.699C1280.5 684.499 1281.66 697.425 1283.37 704C1288.58 724.022 1293.88 744.067 1299.42 764C1307.62 793.496 1313.51 824.302 1324.23 853C1335.83 884.077 1352.64 913.634 1369.6 942C1392.52 980.302 1419.56 1016.12 1444.66 1053C1488.75 1117.79 1531.5 1183.47 1575.97 1248C1668.36 1382.04 1756.59 1518.96 1848.97 1653C1872.46 1687.08 1895.37 1721.56 1918.33 1756C1929.89 1773.34 1943.82 1790.53 1953.46 1809C1967.09 1835.14 1962.9 1869.79 1976.3 1896C1984.61 1912.25 2006.1 1927.1 2019 1940L2096 1863C2108.51 1850.49 2120.7 1834.93 2135 1824.5C2147.76 1815.19 2166.47 1810.18 2181 1804C2186.79 1801.54 2195.03 1799.43 2199.39 1794.73C2206.35 1787.22 2211.16 1776.59 2216.69 1768L2252.69 1712L2361.69 1543C2480.41 1358.7 2599.14 1174.41 2717.69 990C2759.3 925.281 2806.96 862.398 2838.69 792C2851.79 762.959 2858.2 730.532 2867 700C2873.44 677.64 2879.73 655.213 2886.66 633C2888.69 626.506 2895.84 612.583 2893.65 606C2891.32 599.034 2881.11 592.105 2876 587C2856.14 567.143 2833.68 552.095 2807 543.003C2719.34 513.135 2619.5 515 2528 515M1277 679L1353 603C1369.42 586.581 1384.87 568.428 1405 556.453C1439.62 535.859 1482.58 528.565 1522 523.845C1588.85 515.841 1656.7 515 1724 515M2896 605C3036.6 559.252 3178.54 515 3328 515M2019 1940L2019 2657L2019 2849C2019 2866.05 2018 2882.99 2018 2900C2018 2905.89 2016.34 2914.82 2019.6 2920C2024.8 2928.23 2034.1 2934.31 2041 2941.01C2060.52 2959.96 2081.9 2977.31 2104 2993.14C2200.74 3062.46 2319.27 3076.97 2435 3082.04C2488.55 3084.38 2542.35 3086.99 2596 3087M2018 2919C1969.86 2967.01 1914.9 3010.73 1852 3037.57C1788.8 3064.54 1717.96 3073.41 1650 3078.09C1582.78 3082.72 1515.39 3085.61 1448 3087"/>
</svg>
