<?xml version="1.0" standalone="yes"?>
<svg width="4000" height="4500">
<path style="stroke:none;fill:none;" d="M958 1114C968.102 1072.99 971.255 1029.56 978.615 988C994.274 899.575 1015.37 812.442 1046.32 728C1057.9 696.393 1070.72 665.054 1085.92 635C1090.81 625.349 1096.1 608.599 1104.38 601.564C1108.87 597.75 1117.42 597.401 1123 596.119C1137.94 592.684 1152.98 589.805 1168 586.8C1227.74 574.855 1288.48 568.613 1349 562.83C1459.99 552.224 1571.43 553 1683 553L2062 553L2588 553C2601.41 553 2622.43 548.97 2635 553.604C2642.2 556.257 2648.68 565.675 2654 571L2694 611L2717 634C2719.96 636.963 2724.88 640.477 2725.22 645C2726.26 659.081 2716.8 678.293 2713.37 692C2707.77 714.401 2704.43 742.262 2694.33 763C2682.28 787.737 2660.68 810.583 2644.71 833C2571.81 935.297 2499.31 1037.89 2426.14 1140C2127.77 1556.39 1831.47 1974.29 1533.58 2391C1442.37 2518.59 1351.31 2646.28 1260.29 2774C1247.04 2792.6 1228.17 2812.22 1218.75 2833C1208.81 2854.94 1204.98 2882.62 1199.13 2906C1196.36 2917.04 1193.13 2927.96 1190.37 2939C1189.44 2942.72 1186.84 2948.18 1187.79 2952C1189.74 2959.83 1202.42 2968.42 1208 2974L1262 3028C1268.09 3034.09 1277.12 3047.47 1286 3048.85C1305.67 3051.91 1328.08 3049 1348 3049L1475 3049L1866 3049L2286 3049C2409.96 3049 2533.52 3049.56 2657 3041.09C2726.63 3036.32 2796.32 3027.48 2865 3014.61C2883.05 3011.23 2901.08 3007.7 2919 3003.65C2925.88 3002.09 2936.07 3001.5 2941.87 2997.27C2950.91 2990.69 2957.43 2971.9 2962.41 2962C2977.52 2931.96 2990.75 2901.29 3003 2870C3038.13 2780.3 3061.25 2687.39 3083.9 2594C3091.14 2564.14 3097.52 2534.02 3104.01 2504C3107.05 2489.96 3111.86 2475.32 3113 2461"/>
</svg>
