<?xml version="1.0" standalone="yes"?>
<svg width="4000" height="4500">
<path style="stroke:none;fill:none;" d="M2478 3699L2212 3699C2140 3699 2067.4 3700.97 1997 3683.37C1952.9 3672.35 1911.09 3654.45 1874 3628C1862.4 3619.73 1845.31 3609.15 1837.6 3597C1835.1 3593.05 1836 3587.47 1836 3583L1836 3551L1836 3431L1836 2981L1836 1299L1836 804L1836 675L1836 642C1836 636.944 1835.11 631.283 1838.32 627C1880.6 570.565 1956.89 542.399 2024 532.729C2084.43 524.021 2146.05 527 2207 527L2478 527"/>
</svg>
