<?xml version="1.0" standalone="yes"?>
<svg width="4000" height="4500">
<path style="stroke:none;fill:none;" d="M1517 527L1789 527C1858 527 1927.48 524.251 1995 541.126C2040.5 552.499 2083.89 570.106 2122 597.849C2133.87 606.492 2148.78 616.173 2157.68 628.001C2160.9 632.272 2160 637.952 2160 643L2160 676L2160 804L2160 1300L2160 2980L2160 3430L2160 3550L2160 3582C2160 3586.48 2160.9 3592.04 2158.4 3596C2150.91 3607.86 2136.66 3618.43 2126 3627.41C2086.71 3660.5 2038.91 3679.22 1989 3689.2C1925.1 3701.98 1858.84 3699 1794 3699L1517 3699"/>
</svg>
