<?xml version="1.0" standalone="yes"?>
<svg width="4000" height="4500">
<path style="stroke:none;fill:none;" d="M2002 597L2002 630C2002 633.903 2000.84 640.174 2003.03 643.61C2006.53 649.096 2018.31 652.4 2024 655.247L2071 678.753C2077.73 682.116 2087.58 685.086 2092.36 691.105C2105.67 707.863 2113.67 732.841 2123.25 752C2143.83 793.162 2165.49 834.177 2184.69 876C2221.29 955.699 2262.75 1033.44 2301.75 1112C2361.81 1232.96 2421.38 1354.18 2481.75 1475C2522.33 1556.2 2562.38 1637.68 2602.75 1719C2623.33 1760.45 2641.66 1804.02 2665 1844M1340 1844L1384.75 1754L1481.74 1558L1772.75 970L1862.69 789L1895.75 722L1912.39 690.213L1941 674.753L2001 645"/>
</svg>
